<svg width="314" height="292" viewBox="0 0 314 292" fill="none" xmlns="http://www.w3.org/2000/svg">
<path d="M294.947 276.25C292.293 273.65 288.288 272.9 284.863 274.35L282.064 275.5L174.225 169.95L189.183 155.3L224.454 189.8C224.55 189.9 224.743 189.95 224.888 189.95H282.257L283.27 193.05C283.704 194.4 284.477 195.6 285.49 196.55C289.06 200.05 294.947 200.05 298.517 196.55C302.088 193.05 302.088 187.3 298.517 183.8C294.947 180.3 289.06 180.3 285.49 183.8C284.766 184.5 284.187 185.35 283.753 186.25L282.498 188.8H225.081L190.051 154.5L204.719 140.15H294.898L296.056 143C296.491 144.15 297.215 145.25 298.131 146.15C301.702 149.65 307.588 149.65 311.159 146.15C314.729 142.65 314.729 136.9 311.159 133.4C307.588 129.9 301.702 129.9 298.131 133.4C297.311 134.2 296.684 135.15 296.201 136.2L294.995 138.9H204.43C204.285 138.9 204.092 138.95 203.996 139.05L189.183 153.55L174.225 138.9L293.596 22.05L296.394 23.2C299.82 24.65 303.825 23.9 306.479 21.3C310.049 17.8 310.049 12.05 306.479 8.54996C302.908 5.04996 297.022 5.04996 293.451 8.54996C290.797 11.15 290.025 15.1 291.521 18.45L292.727 21.2L173.405 138.2L158.447 123.55L220.883 62.45C220.98 62.35 221.028 62.2 221.028 62.05V44.35L224.164 43.35C225.515 42.95 226.77 42.1999 227.783 41.1499C231.353 37.6499 231.353 31.8999 227.783 28.3999C224.212 24.8999 218.326 24.8999 214.755 28.3999C211.185 31.8999 211.185 37.6499 214.755 41.1499C215.479 41.8499 216.348 42.4 217.264 42.85L219.87 44.05V61.7L157.531 122.7L123.322 89.2V28.75L125.879 27.55C126.796 27.15 127.664 26.55 128.388 25.8C131.958 22.3 131.958 16.55 128.388 13.05C124.817 9.54996 118.931 9.54996 115.36 13.05C111.79 16.55 111.79 22.3 115.36 25.8C116.374 26.8 117.58 27.5 118.979 28L122.115 29V89.3999C122.115 89.5499 122.164 89.7 122.26 89.8L156.662 123.45L141.753 138.15L16.6408 15.6L17.847 12.85C19.2945 9.49996 18.5708 5.59995 15.917 2.94995C12.3465 -0.550049 6.46001 -0.550049 2.88951 2.94995C-0.680986 6.44995 -0.680986 12.2 2.88951 15.7C5.54326 18.3 9.54801 19.05 12.9738 17.6L15.7723 16.45L140.885 138.95L125.927 153.6L111.114 139.1C111.018 139 110.825 138.95 110.68 138.95H78.8833L77.677 136.25C77.2428 135.2 76.519 134.25 75.747 133.45C72.1765 129.95 66.29 129.95 62.7195 133.45C59.149 136.95 59.149 142.7 62.7195 146.2C66.29 149.7 72.1765 149.7 75.747 146.2C76.6638 145.3 77.3875 144.25 77.8218 143.05L78.9798 140.2H110.439L125.107 154.55L90.029 188.9H20.356L19.1015 186.35C18.6673 185.45 18.0883 184.6 17.3645 183.9C13.794 180.4 7.90751 180.4 4.33701 183.9C0.766514 187.4 0.766514 193.15 4.33701 196.65C7.90751 200.15 13.794 200.15 17.3645 196.65C18.3778 195.65 19.1015 194.45 19.584 193.15L20.5973 190.05H90.415C90.5598 190.05 90.7528 190 90.8493 189.9L126.12 155.4L141.077 170.05L63.1055 246.25L60.307 245.1C56.8813 243.65 52.8765 244.4 50.2228 247C46.6523 250.5 46.6523 256.25 50.2228 259.75C53.7933 263.25 59.6798 263.25 63.2503 259.75C65.904 257.15 66.676 253.2 65.1803 249.85L63.974 247.1L141.85 170.8L156.807 185.45L141.126 200.8C141.029 200.9 140.981 201.05 140.981 201.2V244.7L138.231 245.85C137.169 246.25 136.156 246.9 135.336 247.75C131.765 251.25 131.765 257 135.336 260.5C138.906 264 144.793 264 148.363 260.5C151.934 257 151.934 251.25 148.363 247.75C147.447 246.85 146.337 246.15 145.179 245.75L142.236 244.65V201.5L157.724 186.3L173.212 201.5V219.6L170.269 220.7C169.062 221.1 168.001 221.8 167.084 222.7C163.514 226.2 163.514 231.95 167.084 235.45C170.655 238.95 176.541 238.95 180.112 235.45C183.682 231.95 183.682 226.2 180.112 222.7C179.292 221.9 178.327 221.25 177.217 220.8L174.467 219.65V201.25C174.467 201.1 174.418 200.95 174.322 200.85L158.641 185.5L173.598 170.85L281.389 276.35L280.182 279.1C278.735 282.45 279.458 286.35 282.112 289C285.683 292.5 291.569 292.5 295.14 289C298.517 285.5 298.517 279.75 294.947 276.25ZM297.649 184.65C300.785 187.75 300.785 192.65 297.649 195.75C294.513 198.85 289.446 198.85 286.31 195.75C283.222 192.65 283.222 187.75 286.31 184.65C289.495 181.65 294.513 181.65 297.649 184.65ZM310.242 134.25C313.378 137.3 313.378 142.25 310.242 145.35C307.106 148.45 302.039 148.45 298.903 145.35C295.767 142.25 295.767 137.35 298.903 134.25C302.039 131.2 307.106 131.2 310.242 134.25ZM305.706 9.49995C308.843 12.6 308.843 17.5 305.706 20.6C302.57 23.7 297.504 23.7 294.368 20.6C291.231 17.5 291.231 12.6 294.368 9.49995C297.504 6.44995 302.57 6.44995 305.706 9.49995ZM215.624 29.3C218.76 26.2 223.826 26.2 226.962 29.3C230.099 32.4 230.099 37.2999 226.962 40.3999C223.826 43.4999 218.76 43.4999 215.624 40.3999C212.488 37.2999 212.439 32.35 215.624 29.3ZM116.277 25.05C113.141 21.95 113.141 17.05 116.277 13.95C119.413 10.85 124.48 10.85 127.616 13.95C130.752 17.05 130.752 21.95 127.616 25.05C124.48 28.15 119.365 28.15 116.277 25.05ZM3.70976 14.8999C0.573506 11.7999 0.573506 6.89996 3.70976 3.79996C6.84601 0.699957 11.9123 0.699957 15.0485 3.79996C18.1848 6.89996 18.1848 11.7999 15.0485 14.8999C11.864 17.9999 6.84601 17.9999 3.70976 14.8999ZM63.6845 145.3C60.5483 142.2 60.5483 137.3 63.6845 134.2C66.8208 131.1 71.887 131.1 75.0233 134.2C78.1595 137.25 78.1595 142.2 75.0233 145.3C71.887 148.4 66.8208 148.4 63.6845 145.3ZM5.10902 195.75C1.97277 192.65 1.97277 187.75 5.10902 184.65C8.24527 181.55 13.3115 181.55 16.4478 184.65C19.584 187.75 19.584 192.65 16.4478 195.75C13.3115 198.85 8.24527 198.85 5.10902 195.75ZM50.9465 258.9C47.8103 255.8 47.8103 250.9 50.9465 247.8C54.0828 244.7 59.149 244.7 62.2853 247.8C65.4215 250.9 65.4215 255.8 62.2853 258.9C59.149 261.9 54.0828 261.9 50.9465 258.9ZM147.35 259.6C144.214 262.7 139.148 262.7 136.011 259.6C132.875 256.5 132.875 251.6 136.011 248.5C139.148 245.4 144.214 245.4 147.35 248.5C150.486 251.6 150.486 256.6 147.35 259.6ZM179.099 234.55C175.962 237.65 170.896 237.65 167.76 234.55C164.624 231.45 164.624 226.55 167.76 223.45C170.896 220.4 175.962 220.4 179.099 223.45C182.235 226.55 182.235 231.55 179.099 234.55ZM282.788 288.15C279.651 285.05 279.651 280.15 282.788 277.05C285.924 273.95 290.99 273.95 294.126 277.05C297.263 280.1 297.263 285.05 294.126 288.15C290.99 291.2 285.972 291.2 282.788 288.15Z" fill="#FF3F62"/>
</svg>
