<svg width="386" height="400" viewBox="0 0 386 400" fill="none" xmlns="http://www.w3.org/2000/svg">
<mask id="mask0_1_775" style="mask-type:luminance" maskUnits="userSpaceOnUse" x="27" y="28" width="332" height="344">
<path d="M358.208 28.8H27.792V371.2H358.208V28.8Z" fill="white"/>
</mask>
<g mask="url(#mask0_1_775)">
<path opacity="0.2" d="M289.114 247.2V239.44C289.114 237.2 287.338 235.36 285.177 235.36H281.471C279.31 235.36 277.534 237.2 277.534 239.44V247.36C257.694 250.32 255.841 265.36 255.841 265.36C255.841 265.36 253.834 249.44 232.449 247.04V239.28C232.449 237.04 230.674 235.2 228.512 235.2H224.806C222.645 235.2 220.869 237.04 220.869 239.28V247.36C199.176 251.68 192.691 278.8 208.672 303.12C226.119 329.6 245.187 343.12 255.841 343.12C266.572 343.12 285.563 329.6 303.01 303.12C319.454 278.32 312.197 250.4 289.114 247.2Z" fill="#282F35"/>
<path d="M281.703 244.48C255.223 244.48 252.907 263.04 252.907 263.04C252.907 263.04 250.514 244.48 224.034 244.48C197.555 244.48 188.214 274.32 205.661 300.8C223.108 327.28 242.176 340.8 252.83 340.8C263.561 340.8 282.552 327.28 299.999 300.8C317.524 274.4 308.182 244.48 281.703 244.48Z" fill="#F1F2F2"/>
<path d="M225.501 264.24H221.796C219.634 264.24 217.858 262.4 217.858 260.16V237.04C217.858 234.8 219.634 232.96 221.796 232.96H225.501C227.663 232.96 229.438 234.8 229.438 237.04V260.16C229.438 262.4 227.663 264.24 225.501 264.24Z" fill="#F1F2F2"/>
<path d="M282.243 264.24H278.538C276.376 264.24 274.6 262.4 274.6 260.16V237.04C274.6 234.8 276.376 232.96 278.538 232.96H282.243C284.405 232.96 286.18 234.8 286.18 237.04V260.16C286.18 262.4 284.405 264.24 282.243 264.24Z" fill="#F1F2F2"/>
<path d="M297.374 262.96C294.441 257.2 290.504 253.36 279.541 253.36C268.656 253.36 262.326 259.04 260.473 262.64C258.62 266.24 255.3 270.08 252.907 270.08C250.36 270.08 247.194 266.16 245.342 262.64C243.489 259.04 237.236 253.36 226.273 253.36C215.311 253.36 211.374 257.28 208.44 262.96C204.117 271.52 206.047 284.24 213.381 295.52C231.137 322.56 247.658 331.36 252.907 331.36C258.157 331.36 274.678 322.56 292.434 295.52C299.69 284.24 301.698 271.52 297.374 262.96Z" fill="#FF3F62"/>
<path d="M223.571 267.84C225.66 267.84 227.354 261.321 227.354 253.28C227.354 245.239 225.66 238.72 223.571 238.72C221.482 238.72 219.788 245.239 219.788 253.28C219.788 261.321 221.482 267.84 223.571 267.84Z" fill="#FF3F62"/>
<path d="M280.39 267.84C282.48 267.84 284.173 261.321 284.173 253.28C284.173 245.239 282.48 238.72 280.39 238.72C278.301 238.72 276.608 245.239 276.608 253.28C276.608 261.321 278.301 267.84 280.39 267.84Z" fill="#FF3F62"/>
<path d="M253.988 325.2C253.525 325.12 252.984 325.04 252.521 324.88C251.672 324.56 243.103 322 226.736 305.68C210.138 286.4 211.219 269.76 211.296 269.04C211.451 266.88 213.072 265.44 214.77 265.68C216.392 265.92 217.627 267.84 217.55 270C217.55 270.64 217.858 283.84 233.067 299.28C247.04 315.92 254.76 319.04 254.837 319.04C256.69 319.92 257.694 322 257.076 323.52C256.536 324.72 255.378 325.28 253.988 325.2Z" fill="#FC1A4A"/>
</g>
<mask id="mask1_1_775" style="mask-type:luminance" maskUnits="userSpaceOnUse" x="27" y="28" width="332" height="344">
<path d="M358.208 28.8H27.792V371.2H358.208V28.8Z" fill="white"/>
</mask>
<g mask="url(#mask1_1_775)">
<path opacity="0.2" d="M153.705 181.76C153.705 181.44 153.782 181.12 153.782 180.8C153.782 180.64 153.782 180.48 153.782 180.32C153.782 180.08 153.782 179.84 153.705 179.6C153.628 179.12 153.551 178.64 153.474 178.16C153.396 177.92 153.242 177.6 153.242 177.36C153.165 177.2 153.165 177.12 153.088 177.12C153.01 176.96 152.933 176.88 152.856 176.72C152.084 175.04 150.694 173.68 148.919 173.12C145.213 171.68 141.353 173.84 140.272 177.44C139.114 181.68 136.181 190.96 133.633 200.24L138.42 164.96C138.42 164.8 138.42 164.72 138.497 164.56C138.497 164.48 138.497 164.48 138.497 164.4C138.497 164.32 138.497 164.16 138.497 164.16V164C138.497 163.92 138.497 163.84 138.497 163.76C138.497 163.68 138.497 163.6 138.497 163.6C138.497 163.52 138.497 163.44 138.497 163.36C138.497 163.28 138.497 163.2 138.497 163.12C138.497 163.04 138.497 162.96 138.497 162.88C138.497 162.8 138.497 162.72 138.497 162.64C138.497 162.56 138.497 162.48 138.497 162.4C138.497 162.32 138.497 162.24 138.497 162.16C138.497 162.08 138.497 162 138.42 161.92C138.42 161.84 138.42 161.76 138.342 161.68C138.342 161.6 138.342 161.52 138.265 161.44C138.265 161.36 138.265 161.28 138.188 161.2C138.188 161.12 138.188 161.04 138.111 161.04C138.111 160.96 138.034 160.88 138.034 160.8C138.034 160.72 138.034 160.72 137.956 160.64C137.956 160.56 137.879 160.48 137.879 160.4C137.879 160.32 137.879 160.32 137.802 160.24C137.802 160.16 137.725 160.08 137.725 160C137.725 160 137.725 159.92 137.648 159.92C137.262 159.12 136.798 158.24 136.104 157.68C134.946 156.48 133.402 155.6 131.703 155.36C127.457 154.72 123.674 157.76 123.057 162.16L118.193 198.56L118.27 154.08C118.27 149.44 114.642 145.68 110.242 145.68C105.764 145.68 102.136 149.44 102.136 154L102.058 201.28C101.904 201.36 101.75 201.44 101.595 201.44L99.8196 163.44C99.8196 163.28 99.8196 163.2 99.8196 163.04C99.8196 162.96 99.8196 162.96 99.8196 162.88C99.8196 162.8 99.8196 162.64 99.7424 162.64C99.7424 162.56 99.7424 162.48 99.7424 162.48C99.7424 162.4 99.7424 162.32 99.6652 162.24C99.6652 162.16 99.6652 162.08 99.588 162C99.588 161.92 99.588 161.84 99.5108 161.76C99.5108 161.68 99.5108 161.6 99.4336 161.52C99.4336 161.44 99.3564 161.36 99.3564 161.28C99.3564 161.2 99.2792 161.12 99.2792 161.04C99.2792 160.96 99.202 160.88 99.202 160.8C99.202 160.72 99.1248 160.64 99.1248 160.56C99.1248 160.48 99.0476 160.4 99.0476 160.32C99.0476 160.24 98.9704 160.16 98.9704 160.08C98.9704 160.08 98.9704 160 98.8932 160C98.7388 159.68 98.6616 159.36 98.43 159.12C98.43 159.12 98.43 159.12 98.43 159.04C98.3528 158.96 98.2756 158.8 98.1984 158.8C98.1984 158.8 98.1984 158.8 98.1984 158.72C98.1212 158.64 98.044 158.48 97.9668 158.48C97.8896 158.4 97.8124 158.24 97.7352 158.24C96.114 156.08 93.4892 154.64 90.6328 154.8H90.5556C85.8464 155.04 82.2952 159.2 82.5268 164.08L84.92 214.72C82.2952 219.2 80.8284 224.4 80.9828 229.84V230.24C76.428 225.44 71.5644 219.28 67.7816 211.6C67.7044 211.44 67.6272 211.36 67.55 211.2C67.55 211.12 67.4728 211.12 67.4728 211.04C67.3956 210.96 67.3956 210.88 67.3184 210.8C67.3184 210.72 67.2412 210.72 67.2412 210.64C67.164 210.56 67.164 210.48 67.0868 210.4C67.0096 210.32 67.0096 210.32 66.9324 210.24C66.8552 210.16 66.8552 210.08 66.778 210C66.7008 209.92 66.7008 209.92 66.6236 209.84C66.5464 209.76 66.4692 209.68 66.4692 209.6C66.392 209.52 66.392 209.52 66.3148 209.44C66.2376 209.36 66.1604 209.28 66.1604 209.2C66.0832 209.12 66.0832 209.12 66.006 209.04C65.9288 208.96 65.8516 208.88 65.7744 208.88C65.6972 208.8 65.6972 208.8 65.62 208.72C65.5428 208.64 65.3884 208.48 65.3884 208.48C65.3112 208.4 65.234 208.4 65.1568 208.32C65.0796 208.24 65.0796 208.24 65.0024 208.16C64.9252 208.08 64.848 208.08 64.7708 208C64.6936 208 64.6936 207.92 64.6164 207.92C64.5392 207.84 64.462 207.84 64.3848 207.76C64.3076 207.76 64.3076 207.68 64.2304 207.68C64.1532 207.6 64.076 207.6 63.9988 207.52C63.9216 207.52 63.9216 207.44 63.8444 207.44C63.7672 207.36 63.69 207.36 63.6128 207.28C63.6128 207.28 63.5356 207.28 63.5356 207.2C63.4584 207.12 63.304 207.12 63.304 207.04C60.988 205.92 58.1316 205.84 55.7384 207.28C51.4924 209.52 49.9484 214.96 52.11 219.28C59.6756 234.32 70.0204 244.64 77.8948 250.88C80.288 252.8 82.3724 254.32 84.148 255.44C91.5592 261.36 96.9632 268.08 96.9632 277.6C96.6544 291.28 96.3456 308.72 96.5 328.24C96.5 329.92 96.5 331.6 96.5 333.2H96.1912C93.798 333.2 91.868 335.2 91.868 337.68V352.96C91.868 353.68 92.0224 354.32 92.3312 354.88C92.5628 355.2 92.7172 355.6 93.026 355.92C93.2576 356.16 93.412 356.32 93.6436 356.48C93.7208 356.48 93.7208 356.56 93.798 356.56C93.8752 356.64 93.9524 356.64 94.0296 356.72C94.1068 356.8 94.184 356.8 94.184 356.8C94.2612 356.88 94.3384 356.88 94.4156 356.96C94.4928 357.04 94.57 357.04 94.6472 357.12C94.7244 357.12 94.7244 357.2 94.8016 357.2C94.8788 357.2 94.956 357.28 95.0332 357.28C95.1104 357.28 95.1104 357.28 95.1876 357.36C95.342 357.44 95.4192 357.44 95.4964 357.44H95.5736C95.6508 357.44 95.8052 357.44 95.8052 357.52C95.8824 357.52 95.8824 357.52 95.9596 357.52C96.114 357.52 96.1912 357.52 96.3456 357.52H97.0404C97.1948 362 97.272 366.48 97.4264 370.88C97.4264 370.96 97.4264 371.04 97.4264 371.12C97.4264 371.84 97.5036 372.48 97.5036 373.2C97.5036 373.36 97.5036 373.44 97.5036 373.52C97.5036 374.24 97.5808 374.8 97.5808 375.52C97.5808 375.6 97.5808 375.76 97.5808 375.76C97.5808 376.48 97.658 377.12 97.658 377.76C97.658 377.84 97.658 377.92 97.658 378C97.8896 382.4 98.044 386.64 98.2756 390.8C98.2756 390.88 98.2756 391.04 98.2756 391.04C98.2756 391.68 98.3528 392.24 98.3528 392.8C98.3528 392.96 98.3528 393.04 98.3528 393.2C98.3528 393.76 98.43 394.4 98.43 394.88C98.43 395.04 98.43 395.2 98.43 395.36C98.43 395.92 98.5072 396.56 98.5072 397.04C98.5072 397.2 98.5072 397.36 98.5072 397.52C98.5844 398.08 98.5844 398.72 98.6616 399.2C98.6616 399.36 98.6616 399.44 98.6616 399.6C98.7388 400.24 98.7388 400.8 98.816 401.36C99.0476 404 99.1248 406.64 99.3564 409.2C99.3564 409.36 99.3564 409.44 99.3564 409.6C99.4336 410.08 99.4336 410.64 99.5108 411.12C99.5108 411.36 99.5108 411.52 99.588 411.76C99.6652 412.24 99.6652 412.72 99.7424 413.2C99.7424 413.44 99.8196 413.6 99.8196 413.92C99.8968 414.4 99.8968 414.8 99.974 415.28C99.974 415.52 100.051 415.76 100.051 416C100.128 416.48 100.128 416.88 100.206 417.36C100.206 417.6 100.283 417.84 100.283 418.08C100.36 418.56 100.36 418.96 100.437 419.44C100.437 419.68 100.514 419.84 100.514 420.08C100.592 420.56 100.592 421.04 100.669 421.52C100.669 421.6 100.669 421.76 100.669 421.76C100.823 423.44 100.9 425.04 101.132 426.64C101.132 426.88 101.209 427.04 101.209 427.28C101.286 427.68 101.286 428.08 101.364 428.48C101.364 428.72 101.441 428.96 101.441 429.2C101.518 429.6 101.518 429.92 101.595 430.4C101.595 430.64 101.672 430.96 101.672 431.2C101.75 431.52 101.75 431.92 101.827 432.32C101.827 432.56 101.904 432.88 101.904 433.12C101.981 433.44 101.981 433.84 102.058 434.24C102.058 434.48 102.136 434.8 102.136 435.04C102.213 435.36 102.213 435.76 102.29 436.08C102.29 436.32 102.367 436.64 102.367 436.88C102.444 437.2 102.444 437.6 102.522 437.92C102.522 438.16 102.599 438.48 102.599 438.72C102.676 439.04 102.676 439.44 102.753 439.76C102.83 440 102.83 440.4 102.908 440.64C102.985 441.2 103.062 441.84 103.139 442.32C103.216 442.64 103.216 443.04 103.294 443.28C103.371 443.52 103.371 443.92 103.448 444.16C103.525 444.48 103.525 444.8 103.602 445.12C103.68 445.36 103.68 445.76 103.757 446C103.834 446.32 103.834 446.64 103.911 446.96C103.988 447.2 103.988 447.52 104.066 447.84C104.143 448.16 104.143 448.48 104.22 448.72C104.297 448.96 104.297 449.28 104.374 449.52C104.452 449.84 104.452 450.16 104.529 450.48C104.606 450.72 104.606 451.04 104.683 451.28C104.76 451.6 104.76 451.92 104.838 452.24C104.915 452.48 104.915 452.8 104.992 453.04C105.069 453.36 105.069 453.76 105.146 454C105.224 454.24 105.224 454.48 105.301 454.72C105.378 455.12 105.455 455.44 105.532 455.92C105.532 456.16 105.61 456.24 105.61 456.48C105.687 457.04 105.841 457.6 105.841 458.16C105.841 458.4 105.918 458.48 105.918 458.72C105.996 459.12 106.073 459.44 106.15 459.92C106.227 460.16 106.227 460.32 106.304 460.64C106.382 460.96 106.459 461.36 106.459 461.68C106.536 461.92 106.536 462.16 106.613 462.4C106.69 462.72 106.768 463.04 106.768 463.36C106.845 463.6 106.845 463.84 106.922 464.08C106.999 464.4 107.076 464.72 107.076 465.04C107.154 465.28 107.154 465.52 107.231 465.76C107.308 466.08 107.385 466.4 107.385 466.72C107.462 466.96 107.462 467.2 107.54 467.44C107.617 467.76 107.694 468.08 107.771 468.4C107.848 468.64 107.848 468.8 107.926 469.04C108.003 469.36 108.08 469.76 108.157 470.08C108.157 470.32 108.234 470.4 108.234 470.64C108.312 471.12 108.466 471.68 108.466 472.16C110.087 480.32 116.495 486.16 124.06 487.12C124.292 487.12 124.446 487.2 124.678 487.2C124.832 487.2 124.91 487.2 124.987 487.2C125.064 487.2 125.218 487.2 125.373 487.2C125.45 487.2 125.604 487.2 125.604 487.2C125.836 487.2 126.068 487.2 126.299 487.2C127.457 487.2 128.692 487.04 129.85 486.88C138.497 485.12 144.441 477.2 144.441 468.48C144.441 467.28 144.287 465.92 144.132 464.64C143.978 464.08 143.901 463.52 143.824 462.96C143.824 462.8 143.746 462.72 143.746 462.56C143.746 462.48 143.746 462.4 143.669 462.32C143.592 461.92 143.515 461.6 143.438 461.12C143.438 460.96 143.36 460.88 143.36 460.72C143.36 460.56 143.283 460.48 143.283 460.4C143.206 460.08 143.129 459.68 143.052 459.36C143.052 459.2 142.974 459.12 142.974 459.04C142.974 458.96 142.897 458.8 142.897 458.64C142.82 458.32 142.743 457.92 142.666 457.6C142.666 457.52 142.666 457.44 142.588 457.36C142.588 457.12 142.511 457.04 142.511 456.8C142.434 456.48 142.357 456.08 142.28 455.76V455.68C142.202 455.44 142.202 455.2 142.125 454.96C142.048 454.64 141.971 454.24 141.894 453.84C141.816 453.6 141.816 453.36 141.739 453.12C141.662 452.72 141.585 452.32 141.508 451.92C141.508 451.68 141.43 451.52 141.43 451.28C141.353 450.72 141.199 450.08 141.199 449.6C141.199 449.36 141.122 449.2 141.122 448.96C141.044 448.56 140.967 448.16 140.89 447.76C140.89 447.52 140.813 447.36 140.813 447.04C140.813 446.96 140.813 446.96 140.813 446.88C140.736 446.56 140.658 446.16 140.658 445.76C140.658 445.52 140.581 445.44 140.581 445.2C140.581 445.04 140.581 444.96 140.504 444.88C140.427 444.56 140.427 444.16 140.35 443.84C140.35 443.68 140.272 443.6 140.272 443.44C140.272 443.28 140.195 443.12 140.195 442.96C140.118 442.64 140.118 442.24 140.041 441.92C140.041 441.84 140.041 441.76 140.041 441.68C140.041 441.44 139.964 441.28 139.964 440.96C139.886 440.64 139.886 440.24 139.809 439.84C139.732 439.6 139.732 439.28 139.655 439.04C139.578 438.64 139.578 438.32 139.5 437.84C139.5 437.6 139.423 437.36 139.423 437.12C139.346 436.72 139.269 436.24 139.269 435.84C139.269 435.68 139.192 435.52 139.192 435.36C139.192 435.12 139.114 434.96 139.114 434.8C139.037 434.4 139.037 434 138.96 433.52C138.96 433.28 138.883 432.96 138.883 432.8C138.806 432.4 138.806 432 138.728 431.6C138.728 431.36 138.651 431.12 138.651 430.88C138.651 430.72 138.651 430.64 138.574 430.56C138.497 430.24 138.497 429.84 138.42 429.52C138.42 429.28 138.342 429.2 138.342 428.96C138.342 428.72 138.265 428.64 138.265 428.4C138.188 428.08 138.188 427.76 138.111 427.44C138.111 427.28 138.111 427.2 138.034 427.12C138.034 426.88 137.956 426.64 137.956 426.4C137.879 426.08 137.879 425.68 137.802 425.28V425.2C137.802 424.96 137.725 424.56 137.725 424.32C137.648 424 137.648 423.6 137.57 423.2C137.57 422.96 137.493 422.56 137.493 422.32C137.416 421.92 137.416 421.6 137.339 421.12C137.339 420.88 137.262 420.64 137.262 420.4C137.262 420.16 137.262 420.08 137.184 419.84C137.184 419.6 137.107 419.2 137.107 418.96C137.107 418.8 137.107 418.64 137.03 418.48C137.03 418.24 136.953 418 136.953 417.76C136.876 417.36 136.876 416.96 136.798 416.56C136.798 416.32 136.721 416 136.721 415.76C136.721 415.68 136.721 415.52 136.721 415.52C136.721 415.2 136.644 414.8 136.644 414.48C136.644 414.24 136.567 414.08 136.567 413.84C136.567 413.6 136.567 413.44 136.49 413.28C136.49 413.04 136.412 412.72 136.412 412.4C136.412 412.24 136.412 412.08 136.335 411.92C136.335 411.68 136.258 411.36 136.258 411.2C136.258 410.96 136.181 410.56 136.181 410.32C136.181 410.24 136.181 410.16 136.181 410.08C136.181 409.76 136.104 409.44 136.104 409.12C136.104 408.8 136.026 408.4 136.026 408C136.026 407.68 135.949 407.28 135.949 406.96C135.949 406.64 135.872 406.24 135.872 405.92C135.872 405.68 135.795 405.28 135.795 405.04C135.795 404.88 135.795 404.8 135.795 404.64C135.795 404.4 135.718 404.16 135.718 403.92C135.718 403.68 135.64 403.44 135.64 403.2C135.64 402.96 135.64 402.8 135.563 402.56C135.563 402.32 135.563 402.08 135.486 401.84C135.486 401.6 135.486 401.44 135.409 401.28C135.409 401.04 135.332 400.72 135.332 400.48C135.332 400.08 135.254 399.68 135.254 399.28C135.254 399.04 135.254 398.8 135.177 398.56C135.177 398.32 135.177 398.08 135.1 397.84C135.1 397.6 135.1 397.44 135.023 397.12C135.023 396.88 135.023 396.72 134.946 396.48C134.946 396.24 134.868 395.84 134.868 395.6C134.868 395.36 134.868 395.12 134.791 394.88C134.791 394.72 134.791 394.64 134.791 394.56C134.791 394.24 134.714 393.84 134.714 393.52C134.714 393.2 134.637 392.88 134.637 392.56C134.637 392.16 134.56 391.84 134.56 391.36C134.56 391.04 134.482 390.72 134.482 390.4C134.482 390.08 134.405 389.68 134.405 389.36C134.405 389.28 134.405 389.12 134.405 389.12C134.405 388.88 134.405 388.64 134.328 388.4C134.328 388.08 134.328 387.76 134.251 387.44C134.251 387.28 134.251 387.12 134.251 386.96C134.251 386.72 134.251 386.56 134.251 386.24C134.251 385.92 134.251 385.68 134.174 385.36C134.174 385.12 134.174 384.96 134.174 384.72C134.174 384.56 134.174 384.4 134.174 384.24C134.174 384 134.174 383.6 134.096 383.36C134.096 383.12 134.096 382.88 134.096 382.64C134.096 382.24 134.019 381.76 134.019 381.36C134.019 381.12 134.019 380.96 134.019 380.64C134.019 380.24 133.942 379.92 133.942 379.44C133.942 379.28 133.942 379.2 133.942 379.12C133.942 379.04 133.942 378.8 133.942 378.64C133.942 378.24 133.865 377.84 133.865 377.44C133.865 377.2 133.865 376.88 133.865 376.64C133.865 376.24 133.788 375.76 133.788 375.36C133.788 375.12 133.788 374.8 133.788 374.56C133.788 374.16 133.788 373.76 133.71 373.36V373.28C133.71 373.04 133.71 372.8 133.71 372.56C133.71 372.16 133.71 371.84 133.633 371.36C133.633 371.28 133.633 371.2 133.633 371.12C133.633 370.88 133.633 370.72 133.633 370.48C133.633 370.16 133.633 369.76 133.556 369.36C133.556 369.2 133.556 369.12 133.556 369.04C133.556 368.96 133.556 368.72 133.556 368.56C133.556 368.16 133.556 367.84 133.479 367.36C133.479 367.2 133.479 367.12 133.479 366.96C133.479 366.4 133.402 365.92 133.402 365.36C133.402 365.2 133.402 365.12 133.402 365.04C133.402 364.48 133.324 363.92 133.324 363.36C133.324 363.28 133.324 363.12 133.324 363.12C133.324 362.56 133.324 362 133.247 361.52C133.247 361.36 133.247 361.28 133.247 361.2C133.247 360.72 133.247 360.16 133.17 359.68C133.17 359.44 133.17 359.36 133.17 359.12C133.17 358.64 133.17 358.16 133.093 357.68C133.093 357.52 133.093 357.44 133.093 357.2H135.64C135.795 357.2 135.872 357.2 136.104 357.2C136.335 357.2 136.721 357.12 136.953 356.96C137.107 356.88 137.184 356.88 137.339 356.8C137.57 356.64 137.879 356.56 138.034 356.4C138.188 356.32 138.265 356.24 138.342 356.16C139.037 355.6 139.5 354.88 139.732 354C139.886 353.6 139.964 353.12 139.964 352.72V337.76C139.964 337.28 139.886 336.88 139.732 336.48C139.5 335.68 139.037 334.88 138.342 334.32C138.188 334.24 138.111 334.08 138.034 334.08C137.802 333.92 137.57 333.84 137.339 333.68C137.184 333.6 137.107 333.52 136.953 333.52C136.721 333.44 136.412 333.36 136.104 333.28C135.949 333.28 135.872 333.28 135.64 333.28H132.63C132.552 328.88 132.552 324.56 132.552 320.4C132.552 297.2 133.016 277.2 133.402 264.32C134.946 258.96 137.03 254.88 138.651 251.76C139.809 249.76 140.736 247.68 141.353 245.44C141.43 245.2 141.508 244.96 141.585 244.72C141.585 244.72 141.585 244.72 141.585 244.64C141.662 244.4 141.739 244.24 141.816 243.92V243.84C141.894 243.6 141.971 243.44 141.971 243.2C141.971 243.12 141.971 243.12 141.971 243.04C142.048 242.8 142.048 242.64 142.125 242.4C142.125 242.32 142.125 242.24 142.125 242.24C142.202 242 142.202 241.92 142.28 241.68C142.28 241.6 142.28 241.52 142.28 241.44C142.28 241.2 142.357 241.12 142.357 240.88C142.357 240.8 142.357 240.72 142.357 240.64C142.357 240.48 142.434 240.32 142.434 240.16C142.434 240.08 142.434 239.92 142.434 239.92C142.434 239.76 142.511 239.6 142.511 239.44C142.511 239.28 142.511 239.2 142.511 239.12C142.511 239.04 142.511 238.88 142.511 238.72C142.511 238.56 142.511 238.48 142.511 238.32C142.511 238.16 142.511 238.08 142.511 238C142.511 237.84 142.511 237.68 142.511 237.52C142.511 237.44 142.511 237.28 142.511 237.28C142.511 237.04 142.511 236.8 142.511 236.56L142.588 227.84C142.588 227.6 142.588 227.36 142.588 227.12C142.588 226.96 142.588 226.88 142.588 226.72C142.588 226.64 142.588 226.48 142.588 226.48C142.588 226.24 142.588 226.16 142.511 225.92C142.434 224.88 142.28 223.84 142.125 222.8C142.202 222.4 142.28 221.92 142.28 221.44C142.28 220.16 142.897 217.2 143.824 213.28C143.901 212.88 144.055 212.56 144.055 212.08C145.676 205.2 148.301 196 150.694 187.92C150.772 187.68 150.849 187.52 150.926 187.36C151.003 187.12 151.158 186.8 151.158 186.48C151.389 185.6 151.698 184.72 151.93 183.84C152.007 183.6 152.084 183.28 152.161 183.04C152.238 182.72 152.393 182.4 152.393 182.16C152.47 181.92 152.547 181.68 152.624 181.44C152.702 181.2 152.779 180.88 152.779 180.72C153.705 182.16 153.705 182 153.705 181.76Z" fill="#282F35"/>
<path d="M92.7944 257.68C95.0332 256.96 97.0404 255.44 98.1212 253.04C100.206 248.64 98.43 243.28 94.184 241.12C93.9524 240.96 75.5016 231.2 64.6164 209.52C62.4548 205.12 57.2052 203.52 53.0364 205.76C48.7904 208 47.2464 213.44 49.408 217.76C62.9952 244.88 85.692 256.64 86.6956 257.12C88.6256 258.16 90.8644 258.24 92.7944 257.68Z" fill="#FBC399"/>
<path d="M122.13 485.12C113.638 485.12 105.996 478.88 104.297 470C97.658 435.76 94.184 387.52 93.8752 326.72C93.6436 281.76 95.2648 247.2 95.4192 245.76C95.9596 235.36 104.452 227.36 114.488 227.92C124.524 228.48 132.244 237.28 131.703 247.68C131.626 249.04 125.218 386.16 139.964 462.56C141.971 472.8 135.563 482.72 125.682 484.72C124.446 485.04 123.211 485.12 122.13 485.12Z" fill="#FBC399"/>
<path d="M139.964 462.56C125.218 386.16 131.626 249.04 131.703 247.68C132.244 237.28 124.524 228.4 114.488 227.92C113.407 227.84 112.403 227.92 111.322 228.08C120.741 229.28 127.689 237.84 127.226 247.76C127.148 249.12 120.741 386.24 135.486 462.64C137.493 472.88 131.086 482.8 121.204 484.8C120.741 484.88 120.278 484.96 119.892 485.04C120.586 485.12 121.436 485.2 122.13 485.2C123.288 485.2 124.524 485.04 125.682 484.88C135.486 482.72 141.894 472.8 139.964 462.56Z" fill="#EA9975"/>
<path d="M91.868 252.48C93.9524 248.08 92.1768 242.72 87.9308 240.56C87.6992 240.4 69.2484 230.64 58.3632 208.96C57.514 207.28 56.1244 205.92 54.5804 205.12C58.4404 203.92 62.6864 205.68 64.6164 209.52C75.5016 231.2 93.9524 241.04 94.184 241.12C98.43 243.28 100.128 248.56 98.1212 253.04C96.9632 255.36 95.0332 257.04 92.7944 257.68C90.7872 258.32 88.6256 258.08 86.6184 257.12H86.5412C88.8572 256.4 90.7872 254.8 91.868 252.48Z" fill="#EA9975"/>
<path d="M130.391 344C121.436 344.08 112.558 343.84 103.525 344.16C100.36 344.32 97.1948 344.96 93.9524 345.36C94.8016 397.44 98.2756 439.28 104.22 469.92C105.918 478.88 113.561 485.04 122.053 485.04C123.211 485.04 124.446 484.88 125.604 484.72C135.486 482.64 141.894 472.72 139.886 462.56C133.479 429.2 131.086 384.24 130.391 344Z" fill="#8ABCF9"/>
<path d="M135.409 462.56C137.416 472.8 131.008 482.72 121.127 484.72C120.664 484.8 120.2 484.88 119.814 484.96C120.509 485.04 121.358 485.12 122.053 485.12C123.211 485.12 124.446 484.96 125.604 484.8C135.486 482.72 141.894 472.8 139.886 462.64C133.324 428.72 130.931 382.96 130.391 342.24C128.847 342.24 127.38 342.24 125.913 342.24C126.531 382.88 128.924 428.64 135.409 462.56Z" fill="#5AA6F2"/>
<path d="M91.0188 224.56C95.728 224.32 99.2792 220.16 99.0476 215.28L96.5 161.04C96.2684 156.16 92.254 152.4 87.5448 152.64H87.4676C82.7584 152.88 79.2072 157.04 79.4388 161.92L81.9864 216.16C82.218 221.04 86.3096 224.8 91.0188 224.56C90.9416 224.56 90.9416 224.56 91.0188 224.56Z" fill="#FBC399"/>
<path d="M85.5376 221.6C90.324 221.36 93.8752 217.2 93.5664 212.32L91.0188 158.08C90.9416 156 90.1696 154.24 88.9344 152.8C92.9488 153.36 96.114 156.8 96.3456 161.12L98.8932 215.36C99.1248 220.24 95.4964 224.32 90.8644 224.64H90.7872C88.008 224.8 85.5376 223.52 83.9164 221.52C84.4568 221.6 84.9972 221.6 85.5376 221.6Z" fill="#EA9975"/>
<path d="M108.389 211.6C112.094 210.88 114.874 207.44 114.874 203.36L114.951 151.76C114.951 147.12 111.322 143.36 106.922 143.36C102.444 143.36 98.816 147.12 98.816 151.68L98.7388 203.28C98.7388 207.92 102.367 211.68 106.768 211.68C107.385 211.68 107.848 211.68 108.389 211.6Z" fill="#FBC399"/>
<path d="M101.981 208.8C105.687 208.08 108.466 204.64 108.466 200.56L108.543 148.96C108.543 146.8 107.771 144.88 106.459 143.36C106.613 143.36 106.69 143.36 106.845 143.36C111.322 143.36 114.874 147.12 114.874 151.76L114.796 203.36C114.796 207.44 112.017 210.8 108.312 211.6C107.771 211.76 107.231 211.76 106.69 211.76C104.297 211.76 102.213 210.64 100.669 209.04C101.209 208.88 101.595 208.88 101.981 208.8Z" fill="#EA9975"/>
<path d="M123.288 213.6C126.222 212.8 128.538 210.24 129.001 207.04L135.1 162C135.718 157.6 132.784 153.68 128.538 153.04C124.292 152.4 120.509 155.44 119.892 159.84L113.793 204.88C113.175 209.28 116.109 213.2 120.355 213.84C121.281 214 122.362 213.92 123.288 213.6Z" fill="#FBC399"/>
<path d="M115.8 210.48C116.881 210.64 117.884 210.56 118.811 210.24C121.744 209.44 124.06 206.88 124.524 203.68L130.622 158.64C130.854 156.64 130.391 154.72 129.464 153.2C133.247 154.16 135.718 158 135.177 162L129.078 207.04C128.615 210.32 126.299 212.88 123.366 213.6C122.439 213.84 121.358 213.92 120.355 213.84C118.116 213.52 116.186 212.16 115.028 210.32C115.182 210.32 115.491 210.4 115.8 210.48Z" fill="#EA9975"/>
<path d="M109.547 265.68C126.762 265.36 140.504 251.68 140.195 235.2L140.272 226.48C140.041 210 125.759 196.88 108.466 197.2C91.2504 197.52 77.5088 211.2 77.8176 227.68L77.7404 236.4C78.0492 252.96 92.254 266 109.547 265.68Z" fill="#FBC399"/>
<path d="M134.56 227.6C137.648 226.72 139.809 223.76 139.809 220.24C139.809 216.08 145.831 194.8 149.922 180.88C151.312 176.24 149.305 171.28 145.599 170.08C141.894 168.64 138.034 170.8 136.953 174.4C134.482 182.96 125.218 212.16 125.296 220.4C125.373 224.56 128.615 227.92 132.63 227.84C133.324 227.84 134.019 227.76 134.56 227.6Z" fill="#FBC399"/>
<path d="M113.87 247.12C113.87 247.12 109.933 236.48 103.602 231.36C97.0404 226.64 89.0888 227.68 85.4604 226.8C95.8824 225.84 104.297 228 113.33 227.12C122.362 226.24 133.016 225.12 133.016 225.12C133.016 225.12 117.807 230.96 113.87 247.12Z" fill="#EA9975"/>
<path d="M75.1928 249.36C85.6148 256.48 94.2612 263.92 94.2612 276.16C94.2612 288.32 103.525 284.48 103.525 284.48L102.908 255.36L75.1928 249.36Z" fill="#FBC399"/>
<path d="M133.247 355.6H93.5664C91.1732 355.6 89.2432 353.6 89.2432 351.12V336.16C89.2432 333.68 91.1732 331.68 93.5664 331.68H133.247C135.64 331.68 137.57 333.68 137.57 336.16V351.12C137.57 353.6 135.64 355.6 133.247 355.6Z" fill="#8ABCF9"/>
<path d="M133.247 331.76H122.902C125.296 331.76 127.226 333.76 127.226 336.24V348.96C127.226 351.44 125.296 353.44 122.902 353.44H91.3276C90.71 353.44 90.1696 353.28 89.7064 353.12C90.4012 354.64 91.868 355.68 93.5664 355.68H133.247C135.64 355.68 137.57 353.68 137.57 351.2V336.24C137.57 333.76 135.64 331.76 133.247 331.76Z" fill="#5AA6F2"/>
<path d="M100.746 348.08C103.517 348.08 105.764 345.752 105.764 342.88C105.764 340.008 103.517 337.68 100.746 337.68C97.9746 337.68 95.728 340.008 95.728 342.88C95.728 345.752 97.9746 348.08 100.746 348.08Z" fill="#5AA6F2"/>
<path d="M100.206 347.36C102.977 347.36 105.224 345.032 105.224 342.16C105.224 339.288 102.977 336.96 100.206 336.96C97.4342 336.96 95.1876 339.288 95.1876 342.16C95.1876 345.032 97.4342 347.36 100.206 347.36Z" fill="#414042"/>
<path d="M100.206 345.84C102.167 345.84 103.757 344.192 103.757 342.16C103.757 340.128 102.167 338.48 100.206 338.48C98.2443 338.48 96.6544 340.128 96.6544 342.16C96.6544 344.192 98.2443 345.84 100.206 345.84Z" stroke="#231F20" stroke-width="0.8231" stroke-miterlimit="10"/>
<path d="M99.1248 341.84C99.5085 341.84 99.8196 341.518 99.8196 341.12C99.8196 340.723 99.5085 340.4 99.1248 340.4C98.7411 340.4 98.43 340.723 98.43 341.12C98.43 341.518 98.7411 341.84 99.1248 341.84Z" fill="#231F20"/>
<path d="M101.209 344C101.593 344 101.904 343.678 101.904 343.28C101.904 342.882 101.593 342.56 101.209 342.56C100.825 342.56 100.514 342.882 100.514 343.28C100.514 343.678 100.825 344 101.209 344Z" fill="#231F20"/>
<path d="M99.202 341.12L101.286 343.36" stroke="#8ABCF9" stroke-width="3.2922" stroke-miterlimit="10" stroke-linecap="round" stroke-linejoin="round"/>
<path d="M124.678 262.08C124.755 256.16 125.218 256.4 125.836 255.36C131.549 249.84 134.946 242.24 134.791 233.92L134.868 225.2C134.868 223.52 134.637 221.84 134.328 220.24C134.405 219.84 134.482 219.36 134.482 218.88C134.482 214.72 140.658 193.04 144.982 178.32C145.754 175.68 144.75 171.76 142.28 169.68C143.36 169.44 144.518 169.52 145.676 169.92C149.459 171.12 151.389 176.08 150 180.72C145.908 194.72 139.886 215.92 139.886 220.08C139.886 220.56 139.809 220.96 139.732 221.44C140.041 223.04 140.195 224.72 140.272 226.4L140.195 235.12C140.272 239.2 139.5 243.04 138.034 246.64C136.49 250.4 131.24 257.84 129.619 269.52C128.384 275.92 129.85 294.32 129.85 294.32L125.759 288.32C125.759 288.4 124.601 268 124.678 262.08Z" fill="#EA9975"/>
<path opacity="0.2" d="M302.933 131.12C298.996 123.2 293.206 116.16 286.335 110.8C281.78 107.2 276.53 104 274.678 98.0001C273.674 94.7201 274.06 91.1201 274.137 87.7601C274.214 83.1201 274.292 78.4801 274.369 73.7601C274.446 68.4001 274.369 63.1201 274.369 57.8401H274.6C276.144 57.8401 277.38 56.5601 277.38 54.9601V45.2801C277.38 43.6801 276.144 42.4001 274.6 42.4001H274.137C273.52 18.5601 272.362 -5.43988 268.116 -28.8799C267.498 -31.9999 266.803 -34.9599 264.564 -37.2799C262.403 -39.5999 259.315 -40.8799 256.227 -40.8799C251.672 -40.8799 247.503 -38.0799 245.573 -33.8399C244.415 -31.1999 244.338 -28.3999 244.878 -25.5999C245.419 -22.6399 245.959 -19.6799 246.345 -16.7999C248.121 -4.39988 249.202 8.08013 249.819 20.5601C250.205 27.9201 250.514 35.1201 250.668 42.4801H249.047C247.503 42.4801 246.268 43.7601 246.268 45.3601V54.9601C246.268 56.5601 247.503 57.8401 249.047 57.8401H250.977C251.209 79.0401 250.668 97.2001 250.282 106.08C246.654 109.68 244.415 114.48 244.57 119.92V125.52C244.57 126.64 244.724 127.68 244.878 128.72C244.57 130.56 244.415 132.48 244.029 134.32C243.412 136.96 242.794 139.52 242.099 142.16C241.404 144.8 240.787 147.28 240.092 149.92C239.397 152.56 239.706 155.76 242.176 157.28C242.331 157.36 242.485 157.52 242.717 157.52C243.875 158.08 245.264 157.84 246.345 157.2C247.503 156.48 247.966 155.36 248.352 154.08C249.279 150.96 250.205 147.92 251.054 144.8L248.893 163.12C248.584 165.36 249.665 167.44 251.595 168.16C254.142 169.04 257.771 167.44 258.157 164.48L261.013 144.24L261.476 168.48C261.631 171.12 264.024 173.28 266.726 173.04C269.737 172.8 271.744 170.4 271.667 168.08L271.281 143.2C271.435 143.12 271.512 143.12 271.667 143.04L272.825 163.28C273.056 165.44 275.758 166.72 278.692 165.92C281.317 165.12 283.401 162.88 283.247 160C283.17 158.4 283.092 156.72 283.015 154.88C282.784 148.96 282.475 143.28 282.32 138.32C282.243 137.04 282.166 135.68 282.166 134.4C283.864 131.44 284.791 128.08 284.714 124.64V124.4C286.875 126.64 288.805 129.04 290.504 131.76C291.43 133.2 292.279 134.72 293.051 136.24C293.746 137.52 294.672 138.56 296.062 139.12C300.617 140.96 305.172 135.76 302.933 131.12C304.322 133.92 302.778 130.8 302.933 131.12Z" fill="#282F35"/>
<path d="M272.439 103.52C270.972 103.92 269.737 104.96 268.965 106.56C267.652 109.36 268.733 112.8 271.512 114.24C271.744 114.32 283.556 120.64 290.581 134.56C291.97 137.36 295.29 138.48 298.069 136.96C300.771 135.52 301.852 132 300.385 129.2C291.584 111.76 277.071 104.24 276.376 103.84C275.064 103.2 273.674 103.2 272.439 103.52Z" fill="#FBC399"/>
<path d="M245.573 122.88C243.566 123.52 242.099 125.36 242.176 127.6C242.176 130.24 238.857 142.56 237.236 148.88C236.618 151.2 237.776 154.48 240.092 155.52C242.331 156.64 244.801 154.96 245.342 152.96C246.808 148.32 251.518 132.72 251.518 127.44C251.518 124.8 249.433 122.56 246.731 122.64C246.345 122.72 245.959 122.72 245.573 122.88Z" fill="#FBC399"/>
<path d="M246.808 122.72C246.345 122.72 245.959 122.8 245.573 122.96C245.342 123.04 245.033 123.2 244.878 123.2C246.5 123.92 247.503 125.6 247.503 127.52C247.58 132.88 242.948 148.08 241.713 152.56C241.482 153.44 240.555 154.72 239.629 155.28C239.783 155.36 239.938 155.52 240.169 155.52C242.408 156.64 244.878 154.96 245.419 152.96C246.886 148.32 251.595 132.72 251.595 127.44C251.518 124.88 249.356 122.72 246.808 122.72Z" fill="#EA9975"/>
<path d="M253.602 -42.7998C259.083 -42.7998 263.947 -38.7998 265.105 -33.0398C269.351 -10.9598 271.667 20.0002 271.821 59.1202C271.976 88.0002 270.895 110.24 270.818 111.2C270.509 117.92 265.028 123.04 258.543 122.72C252.058 122.4 247.117 116.72 247.426 110C247.503 109.12 251.595 20.8802 242.099 -28.3198C240.864 -34.8798 244.956 -41.2798 251.286 -42.6398C252.058 -42.7998 252.907 -42.7998 253.602 -42.7998Z" fill="#FBC399"/>
<path d="M271.744 59.0401C271.512 19.8401 269.274 -11.1199 265.028 -33.1199C263.87 -38.8799 259.006 -42.8799 253.525 -42.8799C252.83 -42.8799 252.212 -42.7999 251.44 -42.6399C256.072 -41.8399 259.932 -38.1599 260.859 -33.0399C265.105 -10.9599 267.421 20.0001 267.575 59.1201C267.73 88.0001 266.649 110.24 266.572 111.2C266.34 116.96 262.171 121.6 256.922 122.56C257.385 122.64 257.848 122.72 258.388 122.72C264.873 123.04 270.354 117.92 270.663 111.2C270.818 110.24 271.898 88.0001 271.744 59.0401Z" fill="#EA9975"/>
<path d="M248.275 48.0002C253.988 47.9202 259.778 48.0802 265.491 47.9202C267.575 47.8402 269.582 47.3602 271.667 47.1202C271.049 13.6002 268.888 -13.3598 265.028 -33.0398C263.87 -38.7998 259.006 -42.7998 253.525 -42.7998C252.753 -42.7998 251.981 -42.7198 251.209 -42.5598C244.878 -41.2798 240.787 -34.7998 242.022 -28.2398C246.268 -6.79981 247.812 22.0802 248.275 48.0002Z" fill="#FF3F62"/>
<path d="M265.105 -33.1199C263.947 -38.8799 259.083 -42.8799 253.602 -42.8799C252.907 -42.8799 252.29 -42.7999 251.518 -42.6399C256.15 -41.8399 260.01 -38.1599 260.936 -33.0399C264.796 -13.2799 266.958 13.6001 267.575 47.1201C265.491 47.3601 263.406 47.8401 261.399 47.9201C259.392 48.0001 257.462 48.0001 255.609 48.0001C258.929 48.0001 262.248 48.0001 265.491 47.9201C267.575 47.8401 269.582 47.3601 271.667 47.1201C271.126 13.5201 268.888 -13.3599 265.105 -33.1199Z" fill="#C61469"/>
<path d="M273.597 124.8C270.586 125.04 268.347 127.6 268.424 130.72L270.2 160.96C270.509 163.36 273.211 165.04 276.067 164.48H276.144C279.001 163.84 280.931 161.2 280.622 159.04L279.387 130.24C279.232 127.04 276.685 124.64 273.597 124.8Z" fill="#FBC399"/>
<path d="M262.403 133.2C260.01 133.68 258.234 135.84 258.234 138.48L258.774 166.32C258.929 168.96 261.168 171.2 263.947 171.04C266.803 171.04 269.119 168.8 269.042 166.08L268.656 138.48C268.656 135.44 266.34 133.04 263.406 133.04C263.02 133.12 262.712 133.2 262.403 133.2Z" fill="#FBC399"/>
<path d="M263.406 133.12C263.098 133.12 262.712 133.2 262.326 133.28C261.94 133.36 261.631 133.52 261.322 133.6C263.175 134.4 264.487 136.32 264.487 138.56L264.873 166.16C264.95 168.16 263.715 169.92 261.862 170.72C262.48 170.96 263.098 171.04 263.792 171.04C266.649 170.96 268.965 168.8 268.888 166.08L268.502 138.48C268.579 135.6 266.263 133.12 263.406 133.12Z" fill="#EA9975"/>
<path d="M252.83 131.84C250.977 132.32 249.433 134 249.202 136.08L246.191 161.04C245.805 163.76 247.58 166.24 250.205 166.32C252.83 166.4 255.223 164.64 255.455 162.32L259.006 137.52C259.392 134.72 257.462 132.08 254.76 131.68C254.065 131.68 253.37 131.76 252.83 131.84Z" fill="#FBC399"/>
<path d="M254.76 131.76C254.065 131.68 253.448 131.68 252.83 131.92C252.598 132 252.29 132.08 252.058 132.16C254.065 133.04 255.223 135.28 254.914 137.6L251.518 162.48C251.363 164 250.36 165.36 248.893 166.16C249.279 166.32 249.742 166.4 250.205 166.4C252.83 166.48 255.146 164.72 255.455 162.4L259.006 137.6C259.315 134.72 257.462 132.24 254.76 131.76Z" fill="#EA9975"/>
<path d="M261.631 98.4C250.514 98.64 241.636 107.36 241.868 118V123.6C242.099 134.24 251.209 142.64 262.248 142.4C273.365 142.32 282.243 133.52 282.089 122.88V117.28C281.857 106.56 272.748 98.16 261.631 98.4Z" fill="#FBC399"/>
<path d="M258.852 110.32C258.852 110.32 261.399 117.2 265.491 120.48C269.737 123.52 274.832 122.88 277.225 123.44C270.509 124.08 265.105 122.64 259.238 123.2C253.448 123.76 246.577 124.48 246.577 124.48C246.577 124.48 256.304 120.8 258.852 110.32Z" fill="#EA9975"/>
<path d="M283.787 108.88C277.148 104.32 271.512 99.5201 271.512 91.6001C271.512 83.7601 265.568 86.2401 265.568 86.2401L265.954 105.04L283.787 108.88Z" fill="#FBC399"/>
<path d="M300.385 129.28C295.522 119.6 288.882 112.96 283.787 108.96C282.243 107.76 280.854 106.8 279.773 106C274.986 102.24 271.512 97.9201 271.512 91.7601C271.512 87.0401 269.351 86.0801 267.575 86.0801C267.498 88.4801 267.344 91.1201 267.344 91.7601C267.344 97.9201 270.818 102.24 275.604 106C276.762 106.72 278.152 107.68 279.618 108.96C284.714 113.04 291.353 119.68 296.216 129.28C297.606 132.08 296.525 135.52 293.823 137.04C293.592 137.12 293.514 137.28 293.283 137.28C294.75 137.92 296.371 137.84 297.838 137.04C300.694 135.52 301.775 132.08 300.385 129.28Z" fill="#EA9975"/>
<path d="M279.541 132.56C280.545 130.88 282.089 127.6 282.089 122.8C280.931 121.2 278.769 120.08 278.769 120.08C278.769 120.08 279.232 121.36 279.232 124.48C279.232 127.6 278.074 130.08 275.372 132.56L276.762 159.92C276.994 161.6 275.758 163.52 273.751 164.48C274.446 164.64 275.218 164.64 275.99 164.48H276.067C278.924 163.84 280.854 161.2 280.545 159.04L279.541 132.56Z" fill="#EA9975"/>
<path d="M246.422 40.4802H271.976C273.52 40.4802 274.755 41.7602 274.755 43.3602V52.9602C274.755 54.5602 273.52 55.8402 271.976 55.8402H246.422C244.878 55.8402 243.643 54.5602 243.643 52.9602V43.3602C243.643 41.8402 244.878 40.4802 246.422 40.4802Z" fill="#FF3F62"/>
<path d="M271.976 55.8401H265.336C266.88 55.8401 268.116 54.5602 268.116 52.9602V44.7201C268.116 43.1201 266.88 41.8401 265.336 41.8401H245.033C244.724 41.8401 244.338 41.9202 243.952 42.0802C244.415 41.1202 245.342 40.4001 246.5 40.4001H272.053C273.597 40.4001 274.832 41.6802 274.832 43.2802V52.8802C274.755 54.5602 273.52 55.8401 271.976 55.8401Z" fill="#C61469"/>
<path d="M268.347 53.2002C270.138 53.2002 271.59 51.6959 271.59 49.8402C271.59 47.9845 270.138 46.4802 268.347 46.4802C266.556 46.4802 265.105 47.9845 265.105 49.8402C265.105 51.6959 266.556 53.2002 268.347 53.2002Z" fill="#FF3F62"/>
<path d="M267.652 52.4802C269.443 52.4802 270.895 50.9759 270.895 49.1202C270.895 47.2646 269.443 45.7603 267.652 45.7603C265.862 45.7603 264.41 47.2646 264.41 49.1202C264.41 50.9759 265.862 52.4802 267.652 52.4802Z" fill="#414042"/>
<path d="M267.652 51.44C268.889 51.44 269.891 50.4013 269.891 49.12C269.891 47.8387 268.889 46.8 267.652 46.8C266.416 46.8 265.414 47.8387 265.414 49.12C265.414 50.4013 266.416 51.44 267.652 51.44Z" stroke="#231F20" stroke-width="0.5297" stroke-miterlimit="10"/>
<path d="M268.347 50.3201C268.603 50.3201 268.81 50.1052 268.81 49.8401C268.81 49.575 268.603 49.3601 268.347 49.3601C268.091 49.3601 267.884 49.575 267.884 49.8401C267.884 50.1052 268.091 50.3201 268.347 50.3201Z" fill="#231F20"/>
<path d="M267.035 48.96C267.291 48.96 267.498 48.7451 267.498 48.48C267.498 48.2149 267.291 48 267.035 48C266.779 48 266.572 48.2149 266.572 48.48C266.572 48.7451 266.779 48.96 267.035 48.96Z" fill="#231F20"/>
<path d="M268.347 49.8401L266.958 48.4001" stroke="#FF3F62" stroke-width="2.1188" stroke-miterlimit="10" stroke-linecap="round" stroke-linejoin="round"/>
</g>
<mask id="mask2_1_775" style="mask-type:luminance" maskUnits="userSpaceOnUse" x="27" y="28" width="332" height="344">
<path d="M358.208 28.8H27.792V371.2H358.208V28.8Z" fill="white"/>
</mask>
<g mask="url(#mask2_1_775)">
<path d="M110.628 311.92V289.04C110.628 271.92 121.204 258.08 134.251 258.08C147.298 258.08 157.874 272 157.874 289.04V296.8C157.874 308.64 165.131 318.24 174.163 318.24H174.858C183.813 318.24 191.147 308.64 191.147 296.8V221.44C191.147 209.6 198.404 200 207.436 200C216.392 200 223.726 209.6 223.726 221.44V249.84" stroke="#FF3F62" stroke-width="5.6607" stroke-miterlimit="10" stroke-linecap="round" stroke-linejoin="round"/>
<path d="M115.182 309.84C115.182 309.84 115.337 310.08 115.414 310.56C115.568 311.04 115.646 311.68 115.646 312.48C115.646 313.2 115.491 314.16 115.26 315.12C115.105 315.6 114.951 316.16 114.719 316.64L114.565 317.04C114.565 317.2 114.333 317.28 113.793 317.44L112.172 317.84C112.017 317.84 111.94 317.92 111.94 317.92C111.863 317.92 111.786 318 111.708 318C111.631 318.08 111.631 318.16 111.631 318.24C111.245 320.4 110.936 322.4 110.936 324C110.859 325.6 111.014 326.64 111.014 326.64C111.014 326.88 110.859 327.12 110.628 327.12C110.396 327.12 110.164 326.96 110.164 326.72C110.164 326.64 110.164 326.64 110.164 326.56C110.164 326.56 110.319 325.52 110.242 323.92C110.164 322.32 110.01 320.32 109.547 318.16C109.547 318.08 109.547 318 109.47 317.92C109.392 317.92 109.392 317.84 109.238 317.84C109.161 317.84 109.084 317.76 109.006 317.76L107.385 317.36C106.845 317.2 106.613 317.12 106.613 316.96L106.459 316.56C106.227 316 106.073 315.52 105.918 315.04C105.687 314.08 105.532 313.12 105.532 312.4C105.532 311.68 105.61 310.96 105.764 310.48C105.918 310 105.996 309.76 105.996 309.76C107.385 307.12 110.55 306.16 113.098 307.6C114.024 308.16 114.719 308.96 115.182 309.84Z" fill="#F1F2F2"/>
<path d="M120.046 301.04H100.514V305.92H120.046V301.04Z" fill="#F1F2F2"/>
<path d="M113.021 305.36H107.385C106.382 305.36 105.687 304.56 105.687 303.6C105.687 302.56 106.459 301.84 107.385 301.84H113.021C114.024 301.84 114.719 302.64 114.719 303.6C114.796 304.48 114.024 305.36 113.021 305.36Z" fill="#D1D3D4"/>
<path d="M120.046 287.44H100.514V292.32H120.046V287.44Z" fill="#F1F2F2"/>
<path d="M113.021 291.68H107.385C106.382 291.68 105.687 290.88 105.687 289.92C105.687 288.88 106.459 288.16 107.385 288.16H113.021C114.024 288.16 114.719 288.96 114.719 289.92C114.796 290.96 114.024 291.68 113.021 291.68Z" fill="#D1D3D4"/>
</g>
<mask id="mask3_1_775" style="mask-type:luminance" maskUnits="userSpaceOnUse" x="27" y="28" width="332" height="344">
<path d="M358.208 28.8H27.792V371.2H358.208V28.8Z" fill="white"/>
</mask>
<g mask="url(#mask3_1_775)">
<path d="M259.778 72.4001V89.8401C259.778 99.3601 252.29 107.12 243.103 107.12C233.916 107.12 226.428 114.88 226.428 124.4V153.52C226.428 172.8 241.404 188.32 260.01 188.32C278.615 188.32 280.39 203.84 280.39 223.12V255.2" stroke="#FF3F62" stroke-width="5.6607" stroke-miterlimit="10" stroke-linecap="round" stroke-linejoin="round"/>
<path d="M255.223 73.7601C255.223 73.7601 255.069 73.5201 254.992 73.0401C254.837 72.6401 254.76 71.9201 254.76 71.2001C254.76 70.4801 254.914 69.5201 255.146 68.6401C255.3 68.1601 255.378 67.6801 255.686 67.2001L255.841 66.8801C255.841 66.7201 256.072 66.6401 256.613 66.5601L258.157 66.2401C258.311 66.2401 258.311 66.1601 258.388 66.1601C258.466 66.1601 258.543 66.0801 258.62 66.0801C258.697 66.0001 258.697 65.9201 258.697 65.8401C259.083 63.8401 259.315 61.7601 259.392 60.4001C259.392 59.6801 259.392 59.0401 259.392 58.5601C259.392 58.1601 259.315 57.8401 259.315 57.8401C259.315 57.6001 259.469 57.3601 259.624 57.3601C259.855 57.3601 260.087 57.5201 260.087 57.6801C260.087 57.7601 260.087 57.7601 260.087 57.8401C260.087 57.8401 260.01 58.0801 260.01 58.5601C260.01 58.9601 260.01 59.6801 260.01 60.4001C260.087 61.9201 260.241 63.9201 260.704 65.8401C260.704 65.9201 260.704 66.0001 260.782 66.0801C260.859 66.0801 260.859 66.1601 261.013 66.1601C261.09 66.1601 261.168 66.2401 261.245 66.2401L262.789 66.5601C263.329 66.7201 263.561 66.8001 263.561 66.8801L263.715 67.2001C263.947 67.6801 264.024 68.1601 264.256 68.6401C264.487 69.6001 264.642 70.4801 264.642 71.2001C264.642 71.9201 264.564 72.5601 264.41 73.0401C264.256 73.4401 264.178 73.7601 264.178 73.7601C262.866 76.3201 259.855 77.2801 257.385 75.9201C256.458 75.3601 255.686 74.6401 255.223 73.7601Z" fill="#F1F2F2"/>
<path d="M269.351 77.52H250.668V82.16H269.351V77.52Z" fill="#F1F2F2"/>
<path d="M257.385 78.1602H262.712C263.638 78.1602 264.333 78.8801 264.333 79.8401C264.333 80.8001 263.638 81.5201 262.712 81.5201H257.385C256.458 81.5201 255.764 80.8001 255.764 79.8401C255.686 78.9601 256.458 78.1602 257.385 78.1602Z" fill="#D1D3D4"/>
<path d="M269.351 90.5601H250.668V95.2H269.351V90.5601Z" fill="#F1F2F2"/>
<path d="M257.385 91.1201H262.712C263.638 91.1201 264.333 91.8401 264.333 92.8001C264.333 93.7601 263.638 94.4801 262.712 94.4801H257.385C256.458 94.4801 255.764 93.7601 255.764 92.8001C255.686 91.9201 256.458 91.1201 257.385 91.1201Z" fill="#D1D3D4"/>
</g>
</svg>
