<svg width="400" height="400" viewBox="0 0 400 400" fill="none" xmlns="http://www.w3.org/2000/svg">
<path opacity="0.2" d="M98.8 262.95L69.95 301.2C67.6 304.3 71.25 306.85 78.2 306.85H325.3C332.2 306.85 335.85 304.25 333.55 301.2L304.7 262.95C303.3 261.1 298.1 259.7 293 259.7H110.5C105.4 259.7 100.2 261.15 98.8 262.95Z" fill="#282F35"/>
<path d="M132.05 138C134.6 138 136.7 140.1 136.7 142.65H127.4C127.4 140.05 129.5 138 132.05 138Z" fill="#B3D2FF"/>
<path d="M145.2 134.15C149.9 134.15 153.7 137.95 153.7 142.65H136.7C136.7 137.95 140.5 134.15 145.2 134.15Z" fill="#B3D2FF"/>
<path d="M241.9 180.8C244.45 180.8 246.55 182.9 246.55 185.45H237.25C237.25 182.85 239.35 180.8 241.9 180.8Z" fill="#B3D2FF"/>
<path d="M255.05 176.95C259.75 176.95 263.55 180.75 263.55 185.45H246.55C246.55 180.75 250.35 176.95 255.05 176.95Z" fill="#B3D2FF"/>
<path d="M287.25 167.35C289.8 167.35 291.9 169.45 291.9 172H282.6C282.65 169.45 284.7 167.35 287.25 167.35Z" fill="#B3D2FF"/>
<path d="M300.4 163.5C305.1 163.5 308.9 167.3 308.9 172H291.9C291.9 167.3 295.7 163.5 300.4 163.5Z" fill="#B3D2FF"/>
<path d="M383.3 277.7V267.15H376.1L342.45 222.55C340.55 220 333.3 218 326.25 218H73.8C66.75 218 59.5 220 57.6 222.55L23.95 267.15H16.7V278.2C16.95 281.15 21.65 283.3 29.05 283.3H370.9C378.75 283.3 383.55 280.9 383.3 277.7Z" fill="#B3D2FF"/>
<path d="M57.6 211.45L17.65 264.35C14.45 268.6 19.5 272.2 29.05 272.2H370.9C380.45 272.2 385.5 268.6 382.3 264.35L342.4 211.45C340.5 208.9 333.25 206.9 326.2 206.9H73.8C66.75 206.9 59.5 208.9 57.6 211.45Z" fill="#8ABCF9"/>
<path d="M345.9 268.9H54.1L89.75 208.75H310.25L345.9 268.9Z" fill="#FAFAFA"/>
<path d="M127.6 225.55L123.3 237.65H170.35L172.4 222.75H135.9C134.75 224.2 131.45 225.3 127.6 225.55Z" fill="#EDE8E4"/>
<path d="M174.35 208.75H133.65L130.05 218.9C133.6 219.15 136.1 220.2 136.35 221.55H172.6L174.35 208.75Z" fill="#EDE8E4"/>
<path d="M132.9 222.15C133.3 220.95 131.05 220 127.95 220C124.8 220 121.9 220.95 121.4 222.15C120.95 223.35 123.15 224.3 126.35 224.3C129.55 224.35 132.5 223.35 132.9 222.15Z" fill="#59A4EF"/>
<path d="M147.2 216.85C147.4 216.05 145.8 215.4 143.65 215.4C141.5 215.4 139.5 216.05 139.25 216.85C139 217.65 140.6 218.3 142.8 218.3C145 218.3 147 217.65 147.2 216.85Z" fill="#DBD1C8"/>
<path d="M119.1 239.15H71.75L67.4 246.45H116.4L119.1 239.15Z" fill="#EDE8E4"/>
<path d="M175.95 221.55H226.6L224.85 208.75H177.5L175.95 221.55Z" fill="#EDE8E4"/>
<path d="M228.95 239.15H122.75L115 260.85H231.85L228.95 239.15Z" fill="#DBD1C8"/>
<path d="M292.35 208.75H259.6L268.9 237.65H306.7L292.35 208.75Z" fill="#59A4EF"/>
<path d="M81.45 222.8L72.65 237.7H119.7L124.2 225.6C120.55 225.35 118.05 224.2 117.95 222.85H81.45V222.8Z" fill="#EDE8E4"/>
<path d="M130.45 208.75H89.75L82.15 221.55H118.4C119.65 220.2 122.95 219.15 126.65 218.9L130.45 208.75Z" fill="#EDE8E4"/>
<path d="M226.75 222.8H175.75L173.95 237.65H228.75L226.75 222.8Z" fill="#EDE8E4"/>
<path d="M114.35 262.65L112.15 268.9H232.9L232.1 262.65H114.35Z" fill="#EDE8E4"/>
<path d="M232.6 239.15L237.1 268.9H274.75L265.7 239.15H232.6Z" fill="#EDE8E4"/>
<path d="M66.45 248.05L54.1 268.9H108L115.8 248.05H66.45Z" fill="#EDE8E4"/>
<path d="M269.35 239.15L278.9 268.9H322.2L307.4 239.15H269.35Z" fill="#59A4EF"/>
<path d="M326.35 268.9H345.9L339.35 257.85H320.65L326.35 268.9Z" fill="#EDE8E4"/>
<path d="M319.8 256.1H338.3L328.25 239.15H311.1L319.8 256.1Z" fill="#EDE8E4"/>
<path d="M310.3 237.65H327.4L310.25 208.75H295.45L310.3 237.65Z" fill="#EDE8E4"/>
<path d="M260.35 221.55L256.45 208.75H228L229.95 221.55H260.35Z" fill="#EDE8E4"/>
<path d="M260.75 222.8H230.15L232.4 237.65H265.25L260.75 222.8Z" fill="#EDE8E4"/>
<path d="M309.45 243.25H270.65L269.35 239.15H307.4L309.45 243.25Z" fill="#3C99E5"/>
<path d="M82.55 229.3C81.6 229.3 80.7 229.6 80.45 229.95C80.25 230.3 80.85 230.6 81.8 230.6C82.75 230.6 83.7 230.3 83.9 229.95C84.05 229.6 83.45 229.3 82.55 229.3Z" fill="#DBD1C8"/>
<path d="M89.6 229.3C88.65 229.3 87.75 229.6 87.55 229.95C87.35 230.3 87.95 230.6 88.9 230.6C89.85 230.6 90.75 230.3 90.95 229.95C91.15 229.6 90.55 229.3 89.6 229.3Z" fill="#DBD1C8"/>
<path d="M96.65 229.3C95.7 229.3 94.8 229.6 94.6 229.95C94.4 230.3 95.05 230.6 95.95 230.6C96.9 230.6 97.8 230.3 98 229.95C98.2 229.6 97.6 229.3 96.65 229.3Z" fill="#DBD1C8"/>
<path d="M103.7 229.3C102.75 229.3 101.85 229.6 101.7 229.95C101.55 230.3 102.15 230.6 103.1 230.6C104.05 230.6 104.95 230.3 105.1 229.95C105.3 229.6 104.65 229.3 103.7 229.3Z" fill="#70B773"/>
<path d="M110.75 229.3C109.8 229.3 108.9 229.6 108.75 229.95C108.6 230.3 109.2 230.6 110.15 230.6C111.1 230.6 112 230.3 112.15 229.95C112.35 229.6 111.7 229.3 110.75 229.3Z" fill="#DBD1C8"/>
<path d="M117.85 229.3C116.9 229.3 116.05 229.6 115.9 229.95C115.75 230.3 116.4 230.6 117.35 230.6C118.3 230.6 119.15 230.3 119.3 229.95C119.4 229.6 118.75 229.3 117.85 229.3Z" fill="#DBD1C8"/>
<path d="M310.3 237.65H327.4L319.5 224.35H303.5L310.3 237.65Z" fill="#DBD1C8"/>
<path d="M71.8 245L74.35 240.55H115.15L113.4 245H71.8Z" fill="#DBD1C8"/>
<path d="M202.3 220.35L202.15 209.75H222.05L223.3 220.35H202.3Z" fill="#DBD1C8"/>
<path d="M177.5 236.3L178.8 224H193.45L193.05 236.3H177.5Z" fill="#DBD1C8"/>
<path d="M151.75 236.3L154.55 224H169.05L167.15 236.3H151.75Z" fill="#DBD1C8"/>
<path d="M240.7 267.15L237.95 250.65H265.6L270.35 267.15H240.7Z" fill="#DBD1C8"/>
<path d="M237.25 246.45L236.45 241.65H263L264.4 246.45H237.25Z" fill="#DBD1C8"/>
<path d="M59 267.15L69.15 249.55H111.65L104.8 267.15H59Z" fill="#DBD1C8"/>
<path d="M329.3 267.15L325.25 259.5H336.55L341 267.15H329.3Z" fill="#DBD1C8"/>
<path d="M322.6 254.5L315.25 240.55H325.65L333.7 254.5H322.6Z" fill="#DBD1C8"/>
<path d="M304.8 220.85L298.95 209.75H307.9L314.3 220.85H304.8Z" fill="#DBD1C8"/>
<path d="M232.9 220.35L232 214.9H255.3L256.85 220.35H232.9Z" fill="#DBD1C8"/>
<path d="M235.55 236.3L234 226.9H258.75L261.45 236.3H235.55Z" fill="#DBD1C8"/>
<path d="M76.8 236.3H116.8L118.45 232.05H79.25L76.8 236.3Z" fill="#DBD1C8"/>
<path d="M112 224H83.9L81.65 227.9H110.3L112 224Z" fill="#DBD1C8"/>
<path d="M140.75 224L130 227.9L129.1 230.6H147.4L149.1 224H140.75Z" fill="#DBD1C8"/>
<path d="M106.8 217.2L110.4 209.75H127.15L124.25 217.2H106.8Z" fill="#DBD1C8"/>
<path d="M102.45 209.75H92.1L86 220.35H96.95L102.45 209.75Z" fill="#DBD1C8"/>
<path d="M136.2 209.75L134.95 213.4H153.7L152 220.35H169.6L171.25 209.75H136.2Z" fill="#DBD1C8"/>
<path d="M127.15 236.3L128.6 232.05H147.05L145.95 236.3H127.15Z" fill="#DBD1C8"/>
<path d="M340.05 230.6C345.65 230.6 351.45 232.4 353.05 234.6C354.7 236.9 351.35 238.75 345.55 238.75C339.75 238.75 333.85 236.85 332.45 234.6C331.05 232.4 334.45 230.6 340.05 230.6Z" fill="#59A4EF"/>
<path d="M57.85 228.3L48.8 241.4C48.2 242.3 49.45 243 51.65 243C53.85 243 56.1 242.25 56.65 241.4L65.2 228.3C65.7 227.5 64.5 226.9 62.45 226.9C60.45 226.9 58.35 227.5 57.85 228.3Z" fill="#59A4EF"/>
<path opacity="0.2" d="M102.45 241.7C110.817 241.7 117.6 239.909 117.6 237.7C117.6 235.491 110.817 233.7 102.45 233.7C94.0829 233.7 87.3 235.491 87.3 237.7C87.3 239.909 94.0829 241.7 102.45 241.7Z" fill="#424242"/>
<path d="M102.45 177.8C89.25 177.8 78.5 188.5 78.5 201.75C78.5 214.95 102.45 237.75 102.45 237.75C102.45 237.75 126.4 215 126.4 201.75C126.4 188.5 115.7 177.8 102.45 177.8ZM102.45 215.15C95.05 215.15 89 209.15 89 201.7C89 194.3 95 188.25 102.45 188.25C109.85 188.25 115.9 194.25 115.9 201.7C115.9 209.15 109.9 215.15 102.45 215.15Z" fill="#FF3F62"/>
<path d="M102.45 185.7C93.6 185.7 86.4 192.9 86.4 201.75C86.4 210.6 93.6 217.8 102.45 217.8C111.3 217.8 118.5 210.6 118.5 201.75C118.5 192.85 111.3 185.7 102.45 185.7ZM102.45 212.55C96.5 212.55 91.65 207.7 91.65 201.75C91.65 195.8 96.5 190.95 102.45 190.95C108.4 190.95 113.25 195.8 113.25 201.75C113.3 207.7 108.45 212.55 102.45 212.55Z" fill="#C61469"/>
<path opacity="0.2" d="M274.75 269.6C280.742 269.6 285.6 268.324 285.6 266.75C285.6 265.176 280.742 263.9 274.75 263.9C268.758 263.9 263.9 265.176 263.9 266.75C263.9 268.324 268.758 269.6 274.75 269.6Z" fill="#424242"/>
<path d="M274.75 223.9C265.3 223.9 257.6 231.55 257.6 241.05C257.6 250.5 274.75 266.8 274.75 266.8C274.75 266.8 291.9 250.5 291.9 241.05C291.85 231.55 284.2 223.9 274.75 223.9ZM274.75 250.65C269.45 250.65 265.15 246.35 265.15 241.05C265.15 235.75 269.45 231.45 274.75 231.45C280.05 231.45 284.35 235.75 284.35 241.05C284.35 246.35 280.05 250.65 274.75 250.65Z" fill="#FF3F62"/>
<path d="M274.75 229.55C268.4 229.55 263.25 234.7 263.25 241.05C263.25 247.4 268.4 252.55 274.75 252.55C281.1 252.55 286.25 247.4 286.25 241.05C286.2 234.7 281.05 229.55 274.75 229.55ZM274.75 248.75C270.5 248.75 267 245.3 267 241C267 236.75 270.45 233.25 274.75 233.25C279.05 233.25 282.5 236.7 282.5 241C282.45 245.3 279 248.75 274.75 248.75Z" fill="#C61469"/>
<path opacity="0.2" d="M194.1 226.95C211.083 226.95 224.85 223.324 224.85 218.85C224.85 214.376 211.083 210.75 194.1 210.75C177.117 210.75 163.35 214.376 163.35 218.85C163.35 223.324 177.117 226.95 194.1 226.95Z" fill="#424242"/>
<path d="M194.1 97.2C167.25 97.2 145.5 118.95 145.5 145.8C145.5 172.65 194.1 218.9 194.1 218.9C194.1 218.9 242.7 172.65 242.7 145.8C242.7 118.95 220.95 97.2 194.1 97.2ZM194.1 173.05C179.05 173.05 166.85 160.85 166.85 145.8C166.85 130.75 179.05 118.55 194.1 118.55C209.15 118.55 221.35 130.75 221.35 145.8C221.35 160.85 209.15 173.05 194.1 173.05Z" fill="#FF3F62"/>
<path d="M194.1 113.2C176.1 113.2 161.55 127.8 161.55 145.75C161.55 163.75 176.15 178.3 194.1 178.3C212.1 178.3 226.65 163.7 226.65 145.75C226.65 127.8 212.1 113.2 194.1 113.2ZM194.1 167.75C181.95 167.75 172.15 157.9 172.15 145.8C172.15 133.65 182 123.85 194.1 123.85C206.25 123.85 216.05 133.7 216.05 145.8C216.05 157.9 206.25 167.75 194.1 167.75Z" fill="#C61469"/>
<path d="M284.65 143.05C278.1 143.05 272.8 148.35 272.8 154.9H296.5C296.5 148.35 291.2 143.05 284.65 143.05Z" fill="#B3D2FF"/>
<path d="M230.05 147.55C226 147.55 222.7 150.85 222.7 154.9H237.35C237.4 150.8 234.1 147.55 230.05 147.55Z" fill="#B3D2FF"/>
<path d="M255.1 137.15C245.3 137.15 237.4 145.1 237.4 154.85H272.85C272.85 145.1 264.9 137.15 255.1 137.15Z" fill="#B3D2FF"/>
<path d="M104.05 151.6C101.2 151.6 98.9 153.9 98.9 156.75H109.25C109.2 153.95 106.9 151.6 104.05 151.6Z" fill="#B3D2FF"/>
<path d="M89.4 147.3C84.15 147.3 79.95 151.55 79.95 156.75H98.85C98.9 151.55 94.65 147.3 89.4 147.3Z" fill="#B3D2FF"/>
<path d="M136.6 117.5C133.75 117.5 131.45 119.8 131.45 122.65H141.8C141.8 119.85 139.45 117.5 136.6 117.5Z" fill="#B3D2FF"/>
<path d="M122 113.2C116.75 113.2 112.55 117.45 112.55 122.65H131.45C131.45 117.45 127.2 113.2 122 113.2Z" fill="#B3D2FF"/>
<path d="M257.15 101.5C254.3 101.5 252 103.8 252 106.65H262.35C262.3 103.8 260 101.5 257.15 101.5Z" fill="#B3D2FF"/>
<path d="M242.5 97.2C237.25 97.2 233.05 101.45 233.05 106.65H252C252 101.4 247.75 97.2 242.5 97.2Z" fill="#B3D2FF"/>
<path d="M139.35 170.8C137.15 170.8 135.35 172.6 135.35 174.8H143.35C143.35 172.55 141.55 170.8 139.35 170.8Z" fill="#B3D2FF"/>
<path d="M128.1 167.45C124.05 167.45 120.8 170.7 120.8 174.75H135.4C135.4 170.75 132.1 167.45 128.1 167.45Z" fill="#B3D2FF"/>
<path d="M296.8 123.45C293.95 123.45 291.65 125.75 291.65 128.6H302C301.95 125.75 299.65 123.45 296.8 123.45Z" fill="#B3D2FF"/>
<path d="M282.15 119.15C276.9 119.15 272.7 123.4 272.7 128.6H291.6C291.6 123.4 287.4 119.15 282.15 119.15Z" fill="#B3D2FF"/>
<path d="M129.1 156.45H128.4V155.75C128.4 155.55 128.25 155.45 128.1 155.45C127.9 155.45 127.8 155.6 127.8 155.75V156.45H127.1C126.9 156.45 126.8 156.6 126.8 156.75C126.8 156.9 126.95 157.05 127.1 157.05H127.8V157.75C127.8 157.95 127.95 158.05 128.1 158.05C128.3 158.05 128.4 157.9 128.4 157.75V157.05H129.1C129.3 157.05 129.4 156.9 129.4 156.75C129.4 156.6 129.25 156.45 129.1 156.45Z" fill="#B3D2FF"/>
<path d="M145.7 164.55H145V163.85C145 163.65 144.85 163.55 144.7 163.55C144.5 163.55 144.4 163.7 144.4 163.85V164.55H143.7C143.5 164.55 143.4 164.7 143.4 164.85C143.4 165.05 143.55 165.15 143.7 165.15H144.4V165.85C144.4 166.05 144.55 166.15 144.7 166.15C144.9 166.15 145 166 145 165.85V165.15H145.7C145.9 165.15 146 165 146 164.85C146 164.7 145.9 164.55 145.7 164.55Z" fill="#FBFBFB"/>
<path d="M185.35 135.15H184.65V134.45C184.65 134.25 184.5 134.15 184.35 134.15C184.15 134.15 184.05 134.3 184.05 134.45V135.15H183.35C183.15 135.15 183.05 135.3 183.05 135.45C183.05 135.65 183.2 135.75 183.35 135.75H184.05V136.45C184.05 136.65 184.2 136.75 184.35 136.75C184.55 136.75 184.65 136.6 184.65 136.45V135.75H185.35C185.55 135.75 185.65 135.6 185.65 135.45C185.65 135.3 185.5 135.15 185.35 135.15Z" fill="#FBFBFB"/>
<path d="M201 138.65H200.3V137.95C200.3 137.75 200.15 137.65 200 137.65C199.8 137.65 199.7 137.8 199.7 137.95V138.65H199C198.8 138.65 198.7 138.8 198.7 138.95C198.7 139.15 198.85 139.25 199 139.25H199.7V139.95C199.7 140.15 199.85 140.25 200 140.25C200.2 140.25 200.3 140.1 200.3 139.95V139.25H201C201.2 139.25 201.3 139.1 201.3 138.95C201.35 138.8 201.2 138.65 201 138.65Z" fill="#FBFBFB"/>
<path d="M251.4 133.8H250.7V133.1C250.7 132.9 250.55 132.8 250.4 132.8C250.2 132.8 250.1 132.95 250.1 133.1V133.8H249.4C249.2 133.8 249.1 133.95 249.1 134.1C249.1 134.3 249.25 134.4 249.4 134.4H250.1V135.1C250.1 135.3 250.25 135.4 250.4 135.4C250.6 135.4 250.7 135.25 250.7 135.1V134.4H251.4C251.6 134.4 251.7 134.25 251.7 134.1C251.75 133.95 251.6 133.8 251.4 133.8Z" fill="#FBFBFB"/>
<path d="M268 127.6H267.3V126.9C267.3 126.7 267.15 126.6 267 126.6C266.8 126.6 266.7 126.75 266.7 126.9V127.6H266C265.8 127.6 265.7 127.75 265.7 127.9C265.7 128.05 265.85 128.2 266 128.2H266.7V128.9C266.7 129.1 266.85 129.2 267 129.2C267.2 129.2 267.3 129.05 267.3 128.9V128.2H268C268.2 128.2 268.3 128.05 268.3 127.9C268.3 127.75 268.2 127.6 268 127.6Z" fill="#FBFBFB"/>
<path d="M240.3 114.25H239.6V113.55C239.6 113.35 239.45 113.25 239.3 113.25C239.1 113.25 239 113.4 239 113.55V114.25H238.3C238.1 114.25 238 114.4 238 114.55C238 114.75 238.15 114.85 238.3 114.85H239V115.55C239 115.75 239.15 115.85 239.3 115.85C239.5 115.85 239.6 115.7 239.6 115.55V114.85H240.3C240.5 114.85 240.6 114.7 240.6 114.55C240.6 114.4 240.45 114.25 240.3 114.25Z" fill="#FBFBFB"/>
<path d="M255.15 121.55H254.45V120.85C254.45 120.65 254.3 120.55 254.15 120.55C253.95 120.55 253.85 120.7 253.85 120.85V121.55H253.15C252.95 121.55 252.85 121.7 252.85 121.85C252.85 122.05 253 122.15 253.15 122.15H253.85V122.85C253.85 123.05 254 123.15 254.15 123.15C254.35 123.15 254.45 123 254.45 122.85V122.15H255.15C255.35 122.15 255.45 122 255.45 121.85C255.45 121.7 255.3 121.55 255.15 121.55Z" fill="#FBFBFB"/>
<path d="M288.3 120.25H287.6V119.55C287.6 119.35 287.45 119.25 287.3 119.25C287.1 119.25 287 119.4 287 119.55V120.25H286.3C286.1 120.25 286 120.4 286 120.55C286 120.75 286.15 120.85 286.3 120.85H287V121.55C287 121.75 287.15 121.85 287.3 121.85C287.5 121.85 287.6 121.7 287.6 121.55V120.85H288.3C288.5 120.85 288.6 120.7 288.6 120.55C288.6 120.4 288.45 120.25 288.3 120.25Z" fill="#FBFBFB"/>
<path d="M248.75 167.45H248.05V166.75C248.05 166.55 247.9 166.45 247.75 166.45C247.55 166.45 247.45 166.6 247.45 166.75V167.45H246.75C246.55 167.45 246.45 167.6 246.45 167.75C246.45 167.9 246.6 168.05 246.75 168.05H247.45V168.75C247.45 168.95 247.6 169.05 247.75 169.05C247.95 169.05 248.05 168.9 248.05 168.75V168.05H248.75C248.95 168.05 249.05 167.9 249.05 167.75C249.05 167.6 248.9 167.45 248.75 167.45Z" fill="#FBFBFB"/>
<path d="M264.25 163.25H263.55V162.55C263.55 162.35 263.4 162.25 263.25 162.25C263.05 162.25 262.95 162.4 262.95 162.55V163.25H262.25C262.05 163.25 261.95 163.4 261.95 163.55C261.95 163.75 262.1 163.85 262.25 163.85H262.95V164.55C262.95 164.75 263.1 164.85 263.25 164.85C263.45 164.85 263.55 164.7 263.55 164.55V163.85H264.25C264.45 163.85 264.55 163.7 264.55 163.55C264.6 163.35 264.45 163.25 264.25 163.25Z" fill="#FBFBFB"/>
<path d="M229.75 190.6H229.05V189.9C229.05 189.7 228.9 189.6 228.75 189.6C228.55 189.6 228.45 189.75 228.45 189.9V190.6H227.75C227.55 190.6 227.45 190.75 227.45 190.9C227.45 191.05 227.6 191.2 227.75 191.2H228.45V191.9C228.45 192.1 228.6 192.2 228.75 192.2C228.95 192.2 229.05 192.05 229.05 191.9V191.2H229.75C229.95 191.2 230.05 191.05 230.05 190.9C230.05 190.75 229.95 190.6 229.75 190.6Z" fill="#FBFBFB"/>
<path d="M274.4 180.45H273.7V179.75C273.7 179.55 273.55 179.45 273.4 179.45C273.2 179.45 273.1 179.6 273.1 179.75V180.45H272.4C272.2 180.45 272.1 180.6 272.1 180.75C272.1 180.95 272.25 181.05 272.4 181.05H273.1V181.75C273.1 181.95 273.25 182.05 273.4 182.05C273.6 182.05 273.7 181.9 273.7 181.75V181.05H274.4C274.6 181.05 274.7 180.9 274.7 180.75C274.75 180.6 274.6 180.45 274.4 180.45Z" fill="#FBFBFB"/>
<path d="M279.6 154.55H278.9V153.85C278.9 153.65 278.75 153.55 278.6 153.55C278.4 153.55 278.3 153.7 278.3 153.85V154.55H277.6C277.4 154.55 277.3 154.7 277.3 154.85C277.3 155.05 277.45 155.15 277.6 155.15H278.3V155.85C278.3 156.05 278.45 156.15 278.6 156.15C278.8 156.15 278.9 156 278.9 155.85V155.15H279.6C279.8 155.15 279.9 155 279.9 154.85C279.9 154.7 279.75 154.55 279.6 154.55Z" fill="#FBFBFB"/>
<path d="M120.3 140H119.6V139.3C119.6 139.1 119.45 139 119.3 139C119.1 139 119 139.15 119 139.3V140H118.3C118.1 140 118 140.15 118 140.3C118 140.5 118.15 140.6 118.3 140.6H119V141.3C119 141.5 119.15 141.6 119.3 141.6C119.5 141.6 119.6 141.45 119.6 141.3V140.6H120.3C120.5 140.6 120.6 140.45 120.6 140.3C120.6 140.15 120.5 140 120.3 140Z" fill="#B3D2FF"/>
<path d="M144.35 111.55H143.65V110.85C143.65 110.65 143.5 110.55 143.35 110.55C143.15 110.55 143.05 110.7 143.05 110.85V111.55H142.35C142.15 111.55 142.05 111.7 142.05 111.85C142.05 112.05 142.2 112.15 142.35 112.15H143.05V112.85C143.05 113.05 143.2 113.15 143.35 113.15C143.55 113.15 143.65 113 143.65 112.85V112.15H144.35C144.55 112.15 144.65 112 144.65 111.85C144.7 111.7 144.55 111.55 144.35 111.55Z" fill="#B3D2FF"/>
<path d="M99.4 131.6H98.7V130.9C98.7 130.7 98.55 130.6 98.4 130.6C98.2 130.6 98.1 130.75 98.1 130.9V131.6H97.4C97.2 131.6 97.1 131.75 97.1 131.9C97.1 132.05 97.25 132.2 97.4 132.2H98.1V132.9C98.1 133.1 98.25 133.2 98.4 133.2C98.6 133.2 98.7 133.05 98.7 132.9V132.2H99.4C99.6 132.2 99.7 132.05 99.7 131.9C99.7 131.75 99.6 131.6 99.4 131.6Z" fill="#B3D2FF"/>
<path d="M111.1 163.2H110.4V162.5C110.4 162.3 110.25 162.2 110.1 162.2C109.9 162.2 109.8 162.35 109.8 162.5V163.2H109.1C108.9 163.2 108.8 163.35 108.8 163.5C108.8 163.65 108.95 163.8 109.1 163.8H109.8V164.5C109.8 164.7 109.95 164.8 110.1 164.8C110.3 164.8 110.4 164.65 110.4 164.5V163.8H111.1C111.3 163.8 111.4 163.65 111.4 163.5C111.4 163.35 111.3 163.2 111.1 163.2Z" fill="#B3D2FF"/>
<path d="M92.65 169.35H91.95V168.65C91.95 168.45 91.8 168.35 91.65 168.35C91.45 168.35 91.35 168.5 91.35 168.65V169.35H90.65C90.45 169.35 90.35 169.5 90.35 169.65C90.35 169.8 90.5 169.95 90.65 169.95H91.35V170.65C91.35 170.85 91.5 170.95 91.65 170.95C91.85 170.95 91.95 170.8 91.95 170.65V170H92.65C92.85 170 92.95 169.85 92.95 169.7C92.95 169.55 92.85 169.35 92.65 169.35Z" fill="#B3D2FF"/>
<path d="M140.1 185.35H139.4V184.65C139.4 184.45 139.25 184.35 139.1 184.35C138.9 184.35 138.8 184.5 138.8 184.65V185.35H138.1C137.9 185.35 137.8 185.5 137.8 185.65C137.8 185.85 137.95 185.95 138.1 185.95H138.8V186.65C138.8 186.85 138.95 186.95 139.1 186.95C139.3 186.95 139.4 186.8 139.4 186.65V186H140.1C140.3 186 140.4 185.85 140.4 185.7C140.4 185.5 140.25 185.35 140.1 185.35Z" fill="#FBFBFB"/>
<path d="M194.1 164.65C204.4 164.65 212.75 156.3 212.75 146C212.75 135.7 204.4 127.35 194.1 127.35C183.8 127.35 175.45 135.7 175.45 146C175.45 156.3 183.8 164.65 194.1 164.65Z" fill="#FBFBFB"/>
<path d="M102.45 210.9C107.503 210.9 111.6 206.803 111.6 201.75C111.6 196.696 107.503 192.6 102.45 192.6C97.3966 192.6 93.3 196.696 93.3 201.75C93.3 206.803 97.3966 210.9 102.45 210.9Z" fill="#FBFBFB"/>
<path d="M274.75 247.65C278.312 247.65 281.2 244.762 281.2 241.2C281.2 237.638 278.312 234.75 274.75 234.75C271.188 234.75 268.3 237.638 268.3 241.2C268.3 244.762 271.188 247.65 274.75 247.65Z" fill="#FBFBFB"/>
<path d="M202.3 148.75C202.3 153.35 198.55 157.1 193.95 157.1C189.35 157.1 185.6 153.35 185.6 148.75C185.6 142.85 193.95 134.55 193.95 134.55C193.95 134.55 202.3 142.85 202.3 148.75Z" fill="#FF3F62"/>
<path d="M98.55 202.75C98.55 200.1 102.5 196.3 102.5 196.3C102.5 196.3 106.45 200.1 106.45 202.75C106.45 204.85 104.7 206.55 102.5 206.55C100.3 206.5 98.55 204.8 98.55 202.75Z" fill="#FF3F62"/>
<path d="M277.35 241.35C277.35 242.8 276.15 244 274.7 244C273.25 244 272.05 242.8 272.05 241.35C272.05 239.45 274.7 236.8 274.7 236.8C274.7 236.8 277.35 239.45 277.35 241.35Z" fill="#FF3F62"/>
</svg>
