<svg width="400" height="400" viewBox="0 0 400 400" fill="none" xmlns="http://www.w3.org/2000/svg">
<path d="M286.85 103.25H281.15V97.6001H274.8V103.25H269.15V109.6H274.8V115.3H281.15V109.6H286.85V103.25Z" fill="#6DAAE2"/>
<path d="M327.45 244.7H323.1V240.3H318.2V244.7H313.8V249.6H318.2V254H323.1V249.6H327.45V244.7Z" fill="#6DAAE2"/>
<path d="M118.35 95.15H113.95V90.75H109.05V95.15H104.7V100.05H109.05V104.45H113.95V100.05H118.35V95.15Z" fill="#6DAAE2"/>
<path opacity="0.2" d="M243.45 89.9001L149.55 69.1501L113.05 234.3L236.4 261.55L266.4 125.9L243.45 89.9001Z" fill="#212121"/>
<path d="M142.45 62.05L105.95 227.2L229.35 254.45L259.35 118.8L236.35 82.8001L142.45 62.05Z" fill="#FAFAFA"/>
<path d="M197.3 106.75C187.1 104.5 177.05 110.95 174.8 121.1C172.55 131.3 179 141.35 189.15 143.6C199.3 145.85 209.4 139.4 211.65 129.25C213.9 119.1 207.5 109 197.3 106.75ZM201.25 130.25L195.65 129L194.4 134.6L188.1 133.2L189.35 127.6L183.75 126.35L185.15 120.05L190.75 121.3L192 115.7L198.3 117.1L197.05 122.7L202.65 123.95L201.25 130.25Z" fill="#FF3F62"/>
<path d="M166.993 152.462L138.531 146.168L137.247 151.978L165.709 158.272L166.993 152.462Z" fill="#BDBDBD"/>
<path d="M200.442 159.863L171.98 153.569L170.695 159.379L199.157 165.672L200.442 159.863Z" fill="#BDBDBD"/>
<path d="M233.89 167.264L205.427 160.971L204.143 166.781L232.605 173.074L233.89 167.264Z" fill="#BDBDBD"/>
<path d="M178.863 166.44L136.146 156.994L134.861 162.804L177.579 172.25L178.863 166.44Z" fill="#BDBDBD"/>
<path d="M203.055 171.746L183.869 167.503L182.584 173.313L201.77 177.555L203.055 171.746Z" fill="#BDBDBD"/>
<path d="M231.545 178.076L208.014 172.873L206.729 178.683L230.26 183.886L231.545 178.076Z" fill="#BDBDBD"/>
<path d="M150.187 171.386L133.784 167.759L132.499 173.569L148.902 177.196L150.187 171.386Z" fill="#BDBDBD"/>
<path d="M192.824 180.839L155.135 172.505L153.851 178.314L191.54 186.648L192.824 180.839Z" fill="#BDBDBD"/>
<path d="M229.134 188.869L200.672 182.575L199.388 188.385L227.85 194.678L229.134 188.869Z" fill="#BDBDBD"/>
<path d="M190.065 230.628L218.527 236.922L219.812 231.112L191.35 224.819L190.065 230.628Z" fill="#BDBDBD"/>
<path d="M156.621 223.241L185.083 229.534L186.368 223.725L157.906 217.431L156.621 223.241Z" fill="#BDBDBD"/>
<path d="M123.178 215.853L151.64 222.147L152.925 216.337L124.463 210.044L123.178 215.853Z" fill="#BDBDBD"/>
<path d="M178.209 216.722L220.927 226.168L222.211 220.358L179.494 210.913L178.209 216.722Z" fill="#BDBDBD"/>
<path d="M154.02 211.383L173.207 215.625L174.491 209.816L155.305 205.573L154.02 211.383Z" fill="#BDBDBD"/>
<path d="M125.527 205.064L149.058 210.267L150.342 204.457L126.811 199.254L125.527 205.064Z" fill="#BDBDBD"/>
<path d="M206.896 211.712L223.3 215.339L224.584 209.529L208.181 205.902L206.896 211.712Z" fill="#BDBDBD"/>
<path d="M164.238 202.307L201.927 210.64L203.212 204.831L165.523 196.497L164.238 202.307Z" fill="#BDBDBD"/>
<path d="M127.967 194.29L156.429 200.584L157.713 194.774L129.251 188.481L127.967 194.29Z" fill="#BDBDBD"/>
<path d="M259.35 118.8L236.35 82.8L229.85 112.3L259.35 118.8Z" fill="#E0E0E0"/>
<path opacity="0.2" d="M312.25 216.8L311.95 216.55C319.5 207.05 323.25 194.55 321.3 181.65L315.85 145.95C315.25 141.95 311.5 139.2 307.5 139.8L298.65 141.15L298.4 139.6C298.25 138.55 297.25 137.85 296.25 138L287.85 139.3C286.35 139.55 285.3 140.95 285.55 142.45L286.15 146.5C286.4 148 287.8 149.05 289.3 148.8L297.7 147.5C298.75 147.35 299.45 146.35 299.3 145.35L299.05 143.8L307.9 142.45C310.4 142.05 312.75 143.8 313.15 146.3L318.6 182C320.45 194.15 316.9 205.95 309.75 214.85L309.4 214.6C308.6 214 307.5 214.15 306.85 214.9C294.9 229.25 271.85 232.75 255.75 222.65C254.9 222.1 253.8 222.35 253.25 223.15L253 223.5C243.5 217.1 236.65 206.95 234.75 194.75L229.3 159.05C228.9 156.55 230.65 154.2 233.15 153.8L241.85 152.45L242.1 154C242.25 155.05 243.25 155.75 244.25 155.6L252.65 154.3C254.15 154.05 255.2 152.65 254.95 151.15L254.35 147.1C254.1 145.6 252.7 144.55 251.2 144.8L242.8 146.1C241.75 146.25 241.05 147.25 241.2 148.25L241.45 149.8L232.75 151.15C228.75 151.75 226 155.5 226.6 159.5L232.05 195.2C234 208.15 241.35 218.95 251.4 225.75L251.15 226.1C250.55 226.95 250.8 228.15 251.65 228.7C258.35 232.9 266.3 235.3 274.55 235.6C277.8 235.75 280.55 238.1 281 241.35L288.55 290.7C289.05 294.1 286.65 297.3 283.2 297.65C279.95 298 277.05 295.6 276.6 292.35L274.6 279.35C273.6 272.75 267.35 268.25 260.75 269.45C254.4 270.6 250.25 276.8 251.2 283.15L259.05 334.65C259.35 336.55 261.05 338 262.95 337.85C265.05 337.65 266.55 335.75 266.25 333.7L258.35 281.85C257.95 279.2 259.9 276.7 262.65 276.55C265.05 276.4 267.1 278.2 267.45 280.6L269.45 293.65C270.6 301.05 277.6 306.1 285 304.75C292.15 303.45 296.8 296.55 295.7 289.35L288.2 240.35C287.7 237.1 289.6 234 292.7 232.95C300.55 230.2 307.45 225.55 312.5 219.45C313.25 218.65 313.1 217.45 312.25 216.8Z" fill="#212121"/>
<path opacity="0.2" d="M174.95 223.25L158.95 119.9C158.45 116.8 155.6 114.7 152.5 115.15L68.7 128.1C65.6 128.6 63.5 131.45 63.95 134.55L79.95 237.9C80.45 241 83.3 243.1 86.4 242.65L117.65 237.8L118.4 242.65C118.9 245.9 121.95 248.15 125.25 247.65L126.85 257.9C127.15 259.75 128.9 261.05 130.75 260.75L132.5 260.5L130.6 260.8L135.5 292.5C136.2 296.9 140.3 299.95 144.7 299.25C149.1 298.55 152.15 294.45 151.45 290.05L149.35 276.4C149.05 274.45 150.4 272.65 152.3 272.35C154.25 272.05 156.05 273.4 156.35 275.3L163.15 319.3L166.15 318.85L159.35 274.85C158.8 271.25 155.4 268.75 151.8 269.35C148.2 269.9 145.7 273.3 146.3 276.9L148.4 290.55C148.8 293.3 146.95 295.85 144.2 296.3C141.45 296.75 138.9 294.85 138.45 292.1L133.55 260.45H133.4C135.25 260.15 136.55 258.4 136.25 256.55L134.65 246.3C137.9 245.8 140.15 242.75 139.65 239.45L138.9 234.6L170.15 229.75C173.3 229.25 175.45 226.35 174.95 223.25Z" fill="#212121"/>
<path d="M145.45 108.1L61.65 121.05C58.55 121.55 56.45 124.4 56.9 127.5L72.9 230.85C73.4 233.95 76.25 236.05 79.35 235.6L110.6 230.75L111.35 235.6C111.85 238.85 114.9 241.1 118.2 240.6L127.75 239.1C131 238.6 133.25 235.55 132.75 232.25L132 227.4L163.25 222.55C166.35 222.05 168.45 219.2 168 216.1L152 112.75C151.4 109.75 148.55 107.65 145.45 108.1Z" fill="#E0F7FA"/>
<path d="M156.15 216.1L84.05 227.25C82.05 227.55 80.15 226.2 79.85 224.15L65.55 131.8C65.25 129.8 66.6 127.9 68.65 127.6L140.75 116.45C142.75 116.15 144.65 117.5 144.95 119.55L159.25 211.9C159.55 213.9 158.15 215.8 156.15 216.1Z" fill="#FF3F62"/>
<path d="M124.574 214.975L113.803 216.641L116.807 236.059L127.579 234.393L124.574 214.975Z" fill="#FF3F62"/>
<path d="M127.3 151L115.95 152.75L114.2 141.4L101.45 143.35L103.2 154.7L91.85 156.45L93.85 169.2L105.2 167.45L106.95 178.8L119.65 176.8L117.9 165.45L129.25 163.7L127.3 151Z" fill="#FAFAFA"/>
<path d="M128 253.05L122.05 253.95C121.05 254.1 120.15 253.4 119.95 252.45L118.1 240.65L127.65 239.15L129.5 250.95C129.65 251.95 129 252.9 128 253.05Z" fill="#6DAAE2"/>
<path d="M159.1 311.75L156.1 312.2L149.3 268.2C149 266.25 147.2 264.95 145.25 265.25C143.3 265.55 142 267.35 142.3 269.3L144.4 282.95C145.1 287.35 142.05 291.5 137.65 292.15C133.25 292.85 129.1 289.8 128.45 285.4L123.55 253.75L126.55 253.3L131.45 284.95C131.85 287.7 134.45 289.55 137.2 289.15C139.95 288.75 141.8 286.15 141.4 283.4L139.3 269.75C138.75 266.15 141.2 262.75 144.8 262.2C148.4 261.65 151.8 264.1 152.35 267.7L159.1 311.75Z" fill="#FAFAFA"/>
<path d="M276.4 225.95C251.8 229.7 228.75 212.75 225 188.15L219.55 152.45C218.95 148.45 221.7 144.75 225.7 144.1L240.9 141.8L241.3 144.5L226.1 146.8C223.6 147.2 221.85 149.55 222.25 152.05L227.7 187.75C231.25 210.85 252.9 226.75 276 223.25C299.1 219.7 315 198.05 311.5 174.95L306.05 139.25C305.65 136.75 303.3 135 300.8 135.4L285.6 137.7L285.2 135L300.4 132.7C304.4 132.1 308.1 134.85 308.75 138.85L314.2 174.55C317.95 199.15 301 222.2 276.4 225.95Z" fill="#F5F5F5"/>
<path d="M244.15 137.8L235.75 139.1C234.7 139.25 234 140.25 234.15 141.25L235.05 147C235.2 148.05 236.2 148.75 237.2 148.6L245.6 147.3C247.1 147.05 248.15 145.65 247.9 144.15L247.3 140.1C247.05 138.65 245.65 137.6 244.15 137.8Z" fill="#6DAAE2"/>
<path d="M289.2 130.95L280.8 132.25C279.3 132.5 278.25 133.9 278.5 135.4L279.1 139.45C279.35 140.95 280.75 142 282.25 141.75L290.65 140.45C291.7 140.3 292.4 139.3 292.25 138.3L291.35 132.55C291.2 131.5 290.2 130.8 289.2 130.95Z" fill="#6DAAE2"/>
<path d="M305.15 209.75L302.3 207.6C301.5 207 300.4 207.15 299.75 207.9C287.8 222.25 264.75 225.75 248.65 215.65C247.8 215.1 246.7 215.35 246.15 216.15L244.1 219.05C243.5 219.9 243.75 221.1 244.6 221.65C251.3 225.85 259.25 228.25 267.5 228.55C270.75 228.7 273.5 231.05 273.95 234.3L281.5 283.65C282 287.05 279.6 290.25 276.15 290.6C272.9 290.95 270 288.55 269.55 285.3L267.55 272.3C266.55 265.7 260.3 261.2 253.7 262.4C247.35 263.55 243.2 269.75 244.15 276.1L252 327.6C252.3 329.5 254 330.95 255.9 330.8C258 330.6 259.5 328.7 259.2 326.65L251.3 274.8C250.9 272.15 252.85 269.65 255.6 269.5C258 269.35 260.05 271.15 260.4 273.55L262.4 286.6C263.55 294 270.55 299.05 277.95 297.7C285.1 296.4 289.75 289.5 288.65 282.3L281.15 233.3C280.65 230.05 282.55 226.95 285.65 225.9C293.5 223.15 300.4 218.5 305.45 212.4C306.15 211.55 306 210.35 305.15 209.75Z" fill="#6DAAE2"/>
<path d="M324.65 136C326.832 136 328.6 134.232 328.6 132.05C328.6 129.869 326.832 128.1 324.65 128.1C322.469 128.1 320.7 129.869 320.7 132.05C320.7 134.232 322.469 136 324.65 136Z" fill="#6DAAE2"/>
<path d="M177.45 266.7C179.632 266.7 181.4 264.932 181.4 262.75C181.4 260.569 179.632 258.8 177.45 258.8C175.268 258.8 173.5 260.569 173.5 262.75C173.5 264.932 175.268 266.7 177.45 266.7Z" fill="#6DAAE2"/>
<path d="M210.1 283.2C212.282 283.2 214.05 281.432 214.05 279.25C214.05 277.069 212.282 275.3 210.1 275.3C207.919 275.3 206.15 277.069 206.15 279.25C206.15 281.432 207.919 283.2 210.1 283.2Z" fill="#6DAAE2"/>
<path d="M101.35 266.7C103.532 266.7 105.3 264.932 105.3 262.75C105.3 260.569 103.532 258.8 101.35 258.8C99.1685 258.8 97.4 260.569 97.4 262.75C97.4 264.932 99.1685 266.7 101.35 266.7Z" fill="#6DAAE2"/>
</svg>
