<svg width="65" height="65" viewBox="0 0 65 65" fill="none" xmlns="http://www.w3.org/2000/svg">
<path d="M39.0683 55.7743H33.8189V65H39.0683V55.7743Z" fill="#6DAAE2"/>
<path d="M26.6011 46.5879H21.3517V55.7742H26.6011V46.5879Z" fill="#ACD8F9"/>
<path d="M32.5066 15.6036V46.5879H54.0289V15.6036C43.5302 18.3202 38.0184 16.9553 32.5066 15.6036Z" fill="#C61469"/>
<path d="M32.5066 0V15.6037C38.0184 16.9685 43.5302 18.3333 54.0289 15.6037V0H32.5066Z" fill="#6DAAE2"/>
<path d="M32.5066 15.6037C26.9948 14.2388 21.4698 12.874 10.9843 15.6037V46.5879H29.2257V55.7743H43.6614V46.5879H32.5066V15.6037Z" fill="#FF3F62"/>
<path d="M32.5066 15.6037V0H10.9843V15.6037C21.4698 12.874 26.9816 14.2388 32.5066 15.6037Z" fill="#ACD8F9"/>
</svg>
