<svg width="65" height="65" viewBox="0 0 65 65" fill="none" xmlns="http://www.w3.org/2000/svg">
<path d="M5.63348 55.7756L12.9714 58.3516L17.0306 64.9999L32.5 45.9007L23.0674 34.2563L5.63348 55.7756Z" fill="#FF3F62"/>
<path d="M41.9325 34.2564L32.5 22.6121L30.1061 19.6587C29.6507 19.0993 29.4295 18.4488 29.4295 17.7332C29.4295 16.0418 30.8086 14.6627 32.5 14.6627V0C22.7161 0 14.7668 7.94936 14.7668 17.7332C14.7668 21.7794 16.1719 25.7476 18.7219 28.8961L23.0674 34.2564L32.5 45.9007L47.9693 65L52.0156 58.3517L59.3535 55.7626L41.9325 34.2564Z" fill="#C61469"/>
<path d="M35.5705 17.7332C35.5705 18.4618 35.3363 19.0993 34.8939 19.6587L32.5 22.6121L41.9325 34.2564L46.278 28.8961C48.8281 25.7476 50.2332 21.7924 50.2332 17.7332C50.2332 7.94936 42.2838 0 32.5 0V14.6627C34.1914 14.6627 35.5705 16.0418 35.5705 17.7332Z" fill="#FF3F62"/>
</svg>
