<svg width="65" height="65" viewBox="0 0 65 65" fill="none" xmlns="http://www.w3.org/2000/svg">
<g clip-path="url(#clip0_1_497)">
<path d="M43.3112 27.2204V21.6888H37.7796V16.3827H43.3112V10.851H45.9643V0C35.4714 0 26.9286 8.54286 26.9286 19.0357C26.9286 22.4316 27.8173 25.7214 29.5153 28.6265L26.0796 38.9204L36.3735 35.4847C39.2786 37.1827 42.5684 38.0714 45.9643 38.0714V27.2204H43.3112Z" fill="#ACD8F9"/>
<path d="M45.9643 0V10.851H48.6174V16.3827H54.149V21.6888H48.6174V27.2204H45.9643V38.0714C56.4572 38.0714 65 29.5286 65 19.0357C65 8.54286 56.4572 0 45.9643 0Z" fill="#6DAAE2"/>
<path d="M18.9031 31.9561L23.3735 27.4857L8.47654 12.5887L6.60614 14.3132C6.53981 14.3663 5.10716 15.7061 3.60818 17.5632C1.43267 20.2561 0.238789 22.7102 0.0398093 24.8592C-0.530599 31.001 5.17348 41.0428 14.5653 50.4347L25.9735 39.0265L18.9031 31.9561Z" fill="#FF3F62"/>
<path d="M33.0439 46.0969L25.9735 39.0265L14.5653 50.4347C18.7969 54.6663 23.2939 58.2612 27.5918 60.8612C30.7225 62.7581 35.299 65 39.2388 65C39.5439 65 39.849 64.9867 40.1408 64.9602C42.2898 64.7612 44.7439 63.554 47.45 61.3918C49.3071 59.8928 50.6337 58.4602 50.7 58.3938L52.4245 56.5234L37.5276 41.6265L33.0439 46.0969Z" fill="#C61469"/>
<path d="M43.3112 16.3827H37.7796V21.6888H43.3112V27.2205H48.6174V21.6888H54.149V16.3827H48.6174V10.8511H43.3112V16.3827Z" fill="#4F91C1"/>
</g>
<defs>
<clipPath id="clip0_1_497">
<rect width="65" height="65" fill="white"/>
</clipPath>
</defs>
</svg>
